<svg preserveAspectRatio="xMidYMid meet" data-bbox="11.4 22.45 567.922 153.353" viewBox="0 0 593.2 195.3" xmlns="http://www.w3.org/2000/svg" data-type="ugc" role="presentation" aria-hidden="true" aria-label="">
    <g>
        <path d="M194 53.7c.2.5.5.9.5 1.3.2 1.6 1.4 2.2 2.7 2.2.5 0 1.1-.1 1.6 0 1.7.1 2.5 1.1 2.3 2.8-.1.6-.1 1.2-.3 1.7-.7 2-1.3 4-2.1 5.9-1 2.4-1.9 4.9-3 7.3-1.1 2.5-2.4 5-3.6 7.5-.1.2-.2.3-.2.5 0 1.6-.7 3-1.1 4.5-.2.7-.1 1.4.3 2.1.8 1.4 2 2.2 3.6 2.2s3.1.4 4.5 1c.8.3 1.6.5 2.5.6 1.5.1 3 .1 4.5 0 1.7-.1 3.3-.1 4.9-.3 1.1-.1 2.2-.3 3.3-.6 1.2-.3 2.5-.4 3.6-.9 3.7-1.7 6.1-4.7 7.5-8.5.8-2.2 1.3-4.5 2.1-6.7.8-2.3 1.8-4.5 2.8-6.6 1-2.2 2.3-4.2 3.9-6.1.5-.5 1-1 1.6-1.2.6.4.6 1 .4 1.5-.3.9-.6 1.9-.9 2.8-.6 1.7-1.3 3.4-2 5.1-.9 2.2-1.9 4.3-2.9 6.4-1.2 2.4-1.9 5-2.5 7.6-.2.7-.1 1.5 0 2.3.2 1.9 2.4 3.4 4.3 3.6 1.7.1 3.3.4 4.9 1.1.7.3 1.5.4 2.2.5 1.9.4 3.8 0 5.7-.1 1 0 2.1-.2 3-.4 1.3-.3 2.7-.7 4-1.1h.5c.9-.1 1.9.2 2.6-.7 0-.1.2-.1.2-.1.9.3 1.6-.4 2.4-.7.8-.3 1.5-.8 2.3-1 1.4-.4 2.7-1.1 3.9-1.9 1.1-.7 2-1.4 2.8-2.4.8-1 1.5-.9 2.3.1.8.9 1.6 1.8 2.5 2.6 2.1 2.1 5 2.9 7.6 4 .2.1.4 0 .5 0 1.2 0 2.3.2 3.4.6 2.8 1 5.7 1.3 8.7 1.7 4.8.5 9.5 0 14.3-.7 1.9-.3 3.7-.8 5.6-1.3 1.5-.4 3-.9 4.4-1.4 2.4-.9 4.8-1.8 7.1-2.9 1.8-.8 3.5-1.9 5-3.3s2-3.1 1.7-5.1c-.3-1.8-1.6-2.9-3.4-2.9-.4 0-.8 0-1.2.1-1.1.2-2-.1-2.8-.9-.8-.7-2-1.1-3.1-.9-1.2.3-2.3.7-3.4 1.1-.7.2-1.3.6-1.9.9-1.5.6-3 1.3-4.6 1.8-1.3.4-2.6.7-3.9 1-1.1.2-1.7-.2-2.1-1.2-.2-.7-.3-1.4-.3-2.1.2-1.5.9-3 .8-4.6v-.1c.4-1.1.8-2.2 1.2-3.2.6-1.5 1.3-3 2-4.4.5-1 1.3-1 1.9-.1.2.3.5.7.8.9 1.6 1.5 3.5 2.2 5.7 2.3.8 0 1.5.1 2.2.4 1.7.7 3.5 1.4 5.4 1.1.9-.1 1.8-.5 2.7-.6 2.5-.3 4.6-1.3 6.5-2.8 3.4-2.5 6.4-5.3 6.5-10 0-.8.5-1.2 1.3-1.3.6-.1 1.3-.1 1.9 0 1.8.2 2.8 2.1 2 3.7-.6 1.3-1.2 2.7-1.7 4-1.1 2.7-2.3 5.3-3.3 8-1.6 3.9-3.1 7.9-4.5 11.8-.5 1.3-.6 2.7-.6 4.1 0 1 .4 2 .9 2.9 1.3 2.2 3.3 3.4 5.9 3.4.6 0 1.2.2 1.8.3 1.7.4 3.3 1 5 1.3 4.4.6 8.6-.2 12.8-1.5 1.2-.4 2.5-.3 3.7-.9 1.6-.7 3.4-1 5-1.6 1.7-.6 3.3-1.4 5-2.1 2.6-1.1 4.9-2.5 6.8-4.6.7-.7 1.2-1.7 1.5-2.6.5-1.2-.2-2.4-1.3-3.2-.9-.6-1.7-.4-2.5 0-.9.5-1.5.3-2.2-.3-.2-.2-.5-.4-.7-.7-.8-1-1.8-1.1-2.9-.9-.6.1-1.1.2-1.7.3-.6.1-.9-.3-.9-.9 0-.4 0-.8.2-1.2.9-2.6 1.8-5.1 2.9-7.6 1.2-2.8 2.4-5.6 3.7-8.5.6-1.4 1.7-2 3.2-2h3.1c.8 0 1.6.3 2.3.1 1.1-.3 1.6.1 2.2 1 .7 1.2 1.7 1.9 3.2 1.7.3-.1.6 0 .9 0 1.5 0 2 .6 1.8 2.1-.1.3-.2.7-.4 1-1.1 2.5-2.2 5.1-3.2 7.6-.7 1.7-1.3 3.5-1.9 5.2-1.1 2.8-2.2 5.5-3.3 8.3-.3.8-.5 1.7-.9 2.5-1.3 3.1.4 4.8 2.6 6.4 1 0 1.8.9 2.9.8 1.3-.2 2.5.2 3.6.7 2.2 1 4.6 1.2 6.9.9 2-.2 4-.6 6-.9 2-.3 4-.5 5.8-1.5.2-.1.4 0 .7 0 .2 0 .4 0 .6-.1 1.5-.6 3-1.2 4.6-1.9 2.7-1.1 5.3-2.5 7.2-4.9.2-.3.5-.6.8-.9.4-.3.8-.3 1.1.2.7.9 1.3 1.8 2.1 2.6 1.8 1.9 3.8 3.4 6.4 4.2.9.3 1.7.6 2.6.9.9.3 1.8.6 2.8.6.2 0 .4 0 .5.1 1.1.3 2.1.7 3.2 1 1.9.4 3.8.7 5.7 1 .8.1 1.7.3 2.5.3 3.4.1 6.8 0 10.1-.6.8-.1 1.6-.1 2.4-.2 2.8-.7 5.6-1.3 8.3-2.2 3.6-1.2 6.9-2.9 10.1-4.8 2.7-1.6 5.2-3.5 7.4-5.7s4.3-4.4 6-7c1.4-2.1 2.4-4.4 3.3-6.7.7-2 1.3-4.1 1.4-6.2 0-.8.2-1.6.2-2.4.1-.7.4-1 1.1-1 .9 0 1.9 0 2.8.1 1.8.1 2.7 1.1 2.4 2.9-.3 2-.9 3.9-1.6 5.8-.2.5-.5 1.1-.7 1.6-.2.6-.3 1.2-.6 1.7-.2.6-.6 1.2-.9 1.8-.9 2.1-1.8 4.2-2.8 6.2-.9 2.1-1.9 4.1-2.8 6.2-.6 1.6-1.2 3.2-1.1 4.9.1 1.7 1.7 3.2 3.4 3.4 1.5.1 3 .3 4.3.8 1.8.7 3.5.9 5.4.9 1.7 0 3.5-.1 5.2-.3 2.1-.2 4.2-.5 6.2-.9 1.5-.4 3-.9 4.4-1.8 1.4-.9 2.7-1.8 3.5-3.2.8-1.3 1.4-2.8 2.1-4.2.5-1 .7-2.1 1-3.1.7-2.2 1.6-4.5 2.4-6.7 1.4-3.5 3-6.9 5.4-9.8.2-.3.5-.5.8-.7.7-.5 1.3-.2 1.4.6 0 .3 0 .5-.1.8-.6 1.6-1.1 3.3-1.8 4.9-1 2.6-2.1 5.2-3.3 7.7-1 2.2-2.1 4.3-2.7 6.7-.4 1.5-.9 2.9-.5 4.5.4 1.7 2.3 3.6 4 3.6 1.7 0 3.3.4 4.9 1.1.7.3 1.5.4 2.3.5 1.4.2 2.8.2 4.3 0 2.4-.4 4.8-.6 7.1-1 1-.2 1.9-.6 3-.6.2 0 .5-.2.7-.3.2-.1.5-.3.7-.3 1.7 0 3.1-1 4.6-1.5 1.6-.6 3.1-1.5 4.6-2.4 1.9-1.1 3.2-2.7 4-4.7.1-.2.1-.6 0-.8-.3-.5-.6-1-1.1-1.3-.8-.4-1.6-.7-2.5-1-.6-.2-.9-.6-.9-1.3 0-1.1 0-2.2.5-3.3.4-.7.6-1.5.9-2.2.7-1.8 1.5-3.6 2.2-5.4 1-2.4 2.1-4.7 3.1-7.1.7-1.7 1.1-3.4 1.7-5.1 1.3-3.6.1-6.4-2.8-8.2-1.9-1.2-4-1.8-6.2-2-.6-.1-1.2-.2-1.8-.5-1.2-.5-2.4-1.1-3.7-1.1-3 0-6-.5-8.9.8-.1 0-.2.1-.3.1-1.6-.1-3 .7-4.4 1.3-2.4 1-4.9 1.8-7.2 3.2-1 .6-2 .2-2.3-1-.4-1.8-1.9-2.8-3.7-2.8H536c-.8.1-1.5-.1-2-.6-.9-1-2-1.1-3.2-1-.8.1-1.6 0-2.4.1-1.3.1-2.7-.1-3.9.7-.2.1-.4.1-.7.1-1.9-.2-3.6.7-5.5 1-2 .4-3.9 1.1-5.9 1.7-.6.2-1.1.6-1.7.7-.6.1-1.2.2-1.7.6-.4.3-1 .5-1.5.7-2.4.9-4.6 2.2-6.1 4.4-.2.3-.5.6-.7.9-1-.4-1-.5-1.5-1.1-.6-.9-1.3-1.8-2.1-2.6-2.3-2.3-5.2-3.6-8.3-4.5-1.8-.5-3.7-1.1-5.5-1.6-.8-.2-1.6-.6-2.4-.7-2.8-.3-5.5-1.1-8.4-.9-1.6.1-3.3-.3-4.8 0-2.7.5-5.5.3-8.1 1.4-.2.1-.4 0-.5.1-1.5.3-3 .5-4.4 1-2 .7-4 1.5-6 2.4-2.4 1-4.8 2.1-6.9 3.7-2.9 2.1-5.9 4.1-8.2 7-1.3 1.6-2.8 3.2-3.9 4.9-1.4 2.4-3 4.7-3.6 7.5-.2.8-.3 1.7-.6 2.4-.4.9-.5 1.7-.5 2.6 0 .8 0 1.7-.1 2.5-.1 1.1-.7 1.6-1.8 1.6-.8 0-1.6-.1-2.4-.1-1.3-.1-1.8-.8-1.4-2.1.4-1.1.8-2.3 1.2-3.4 1.1-2.7 2.2-5.5 3.3-8.2l1.8-4.5c.7-1.7 1.4-3.5 2-5.2.8-2.2 1.4-4.5 2.2-6.7.4-1.3.4-2.4-.6-3.5-.9-1-2.1-1.3-3.4-1.2-1.3.1-2.4-.3-3.5-1-.5-.3-1.1-.6-1.7-.6-2.5 0-4.9.1-7.4.2-.3 0-.7 0-.9.2-.9.6-2 .5-3 .6-1.6.1-3.1.7-4.7.9-1.6.2-3.1 1-4.7 1.4-2.2.5-4.4 1.2-6.4 2.1-.4.2-.7.3-1.1.5-.6.3-1.1.4-1.6-.1-.4-.4-.4-1-.1-1.5.1-.2.2-.3.2-.5.3-.8.2-1.2-.5-1.6-.5-.3-1.2-.5-1.8-.6-.6-.1-1.3-.1-1.9 0-.9.1-1.7-.2-2.3-.8-.4-.4-.8-.6-1.4-.7-1.2-.2-1.6-.9-1.3-1.9.4-1.1.8-2.2 1.1-3.3.4-1.4.9-2.8 1.3-4.2.3-.9 0-1.6-.7-2.2-.6-.5-1.3-.9-2.2-.9h-1.9c-.8.1-1.6-.1-2.2-.8-.5-.5-1.1-.9-1.9-.8-2.2.1-4.5.1-6.7.1-.8 0-1.6.1-2.4.3-1 .1-1.9.3-2.9.5-1.6.3-3.1.7-4.6 1.1-.3.1-.5.2-.7.3-2.6 1.6-4.6 3.8-6 6.5-.6 1.1-1.3 2.2-2 3.3-.3.5-.7 1.1-1.2 1.2-1.6.6-3.2 1.1-4.8 1.3-1.9.2-3.5.8-5 2-.7.6-1.2 1.3-1.8 1.9-.8.9-1.2.9-2.1.2-1.3-1-2.7-1.8-4.2-2.3l-6.3-1.8c-1-.3-2-.6-3.1-.9-1.2-.3-2.5-.5-3.7-.7h-.8c-1.3 0-2.7 0-4 .1-2.6.2-5.1.5-7.7.8-.1 0-.3 0-.4.1-1.4.4-2.8 1-4.2 1.2-1.7.2-3.2 1-4.8 1.5-1.7.6-3.4 1.4-5 2.2-1.7.9-3.5 1.8-5.1 2.8-1.3.7-2.5 1.6-3.6 2.4-.9.6-1.7 1.3-2.5 2-1.5 1.4-2.9 2.8-4.4 4.1-1.6 1.5-2.8 3.4-4 5.3-1.4 2.2-2.5 4.5-3.3 7-.2.6-.3 1.3-.5 1.9-.1.4-.2.9-.3 1.3-.1.6-.3 1.1-.3 1.7-.1.5 0 1.1 0 1.6 0 .8-.6 1.3-1.2 1.3-1.6.1-2.9-1.7-2.4-3.2.5-1.5 1-3.1 1.6-4.6.7-1.8 1.6-3.6 2.4-5.4.6-1.3 1.1-2.5 1.6-3.8.7-1.9 1.4-3.7 2.1-5.6.4-1.3.9-2.5 1.1-3.8.5-3-.7-5.4-3.3-6.9-1.8-1-3.8-1.5-5.8-1.8-.7-.1-1.4-.3-2-.6-1.8-.7-3.6-1.3-5.6-1.1-.8.1-1.7 0-2.5.1-1.2.1-2.3.1-3.4.4-1.3.3-2.5.7-3.8 1.2-1.5.5-3 1-4.5 1.7s-3.1 1.3-4.6 2.1c-1 .6-1.8.2-2.2-.9 0-.1-.1-.3-.1-.4-.3-1-.9-1.7-2-2.2-.9-.4-1.8-.3-2.6-.2-.9.1-1.8-.1-2.5-.8-.7-.7-1.5-.9-2.4-.9-2.3.2-4.7-.1-7 .7-1.3.5-2.8.3-4.3.8-1.9.6-3.9 1-5.8 1.4-.9.2-1.8.4-2.7.8-1.6.6-3.2 1.3-4.8 2-1.3.6-2.6 1.2-3.6 2.2-.8.8-1.8 1.5-2.8 2.3-.2-1.4-.1-2.6.6-4 .7-1.6.2-3.3-1.3-4-.8-.3-1.6-.6-2.4-.6-1.5 0-2.9-.3-4.2-1.2-.4-.3-1-.5-1.5-.5-3.2 0-6.4.1-9.6.3-.6 0-1.2.5-1.9.5-2.3.1-4.4.8-6.5 1.7-2.1.9-3.6 2.4-4.7 4.4-1.5 2.5-2.4 5.4-3.4 8.1-.2.5-.4 1.1-.7 1.6-.6 1.5-1.1 3.1-1.8 4.6-.7 1.5-1.4 3.1-2.3 4.5-.9 1.4-2.1 2.7-3.2 3.9-.3.3-.8.5-1.3.6-.6.1-.9-.2-.8-.7.1-.5.2-1.1.4-1.5 1.1-2.6 2.3-5.2 3.4-7.8.5-1.3 1.1-2.5 1.6-3.8.8-1.9 1.4-3.8 2.3-5.7.8-1.9 1.3-3.8 1.2-5.8-.1-1.4-.8-2.4-2.2-2.8-.9-.2-1.8-.3-2.6-.3-.9 0-1.8-.1-2.5-.8-.6-.6-1.4-.9-2.3-.8-1.6.1-3.2.2-4.8.1-2.4-.2-4.5.8-6.8 1-1 .1-2 .5-3 .6-.3 0-.6.2-.9.3-.9.3-1.7.5-2.6.8-.4.1-.9.2-1.3.4-1 .3-1.9.7-2.9 1.1-2.2.8-4.4 1.6-6.4 2.8-1.6 1-3.2 2.1-4.1 4-.9 1.8-.8 2.2.9 3.4.5.4.9.4 1.5.5.6 0 1.3 0 1.9.1 1.9.3 2.6 1.7 1.9 3.4-.1.2-.2.5-.3.7-.6 1.7-1.2 3.3-1.9 5-.7 1.8-1.5 3.5-2.2 5.3-.7 1.8-1.4 3.6-2.1 5.3-1.1 2.7-1.7 5.4-1.3 8.3.3 2.7 3.4 5.6 6.2 5.6 1 0 2 .1 3 .5.8.4 1.8.7 2.7.9 4.1.8 8.1.2 12.1-.8 1-.2 2-.5 2.9-.9 2.7-1.2 5.6-2.1 8.2-3.6.7-.4 1.3-.2 1.7.6.2.4.3.8.5 1.2.2.4.4.8.7 1.1.9 1.2 2.3 1.2 3.6 1.1 1.1-.1 1.9.2 2.8.7.7.5 1.5.8 2.4.8 1.5 0 3 0 4.5-.1 1.2-.1 2.5-.4 3.7-.7 1.1-.2 2.2-.6 3.4-.8.9-.2 2 .1 2.8-.7.1-.1.3-.1.5-.1.5.1.9-.1 1.4-.3 1.3-.6 2.7-1 4-1.5.9-.4 1.9-.6 2.8-1.1 2.4-1.3 4.5-2.8 6.4-4.7.9-.9 1.2-1.9 1.3-3 .1-.9-.5-1.6-1.5-1.8-.7-.1-1.5-.1-2.3-.2-.7-.1-1.4-.3-2-.5-1-.4-1.2-1-1-2.1.2-.8.5-1.6.8-2.4 2-4.9 4.1-9.7 6.2-14.5.3-.8.5-1.6.9-2.4.7-.6.7-1.7 1.7-2.5zM68.1 75c-.1-.6-.1-1.2-.2-1.7-.5-2.5-2-4.2-4.2-5.5-.9-.5-2-.5-2.9-.9-1.5-.6-3.2-.7-4.7-1.3-2.8-1.2-5.9-1-8.8-.3-1.5.3-3.1.7-4.5 1.3-2.9 1.3-5.5 3-7.5 5.6C34 74 33 75.9 32.7 78c-.4 3 .3 5.7 2.4 8.1 1.9 2 4.3 3.1 6.7 4.2 2.4 1.1 5 1.3 7.4 2 2.1.6 4.3.8 6.4 1.3 2.2.5 4.5.5 6.8.5 3.7.1 7.4-.6 11.1-1 1.4-.2 2.8-.5 4.2-.9 1.1-.3 2.1-.7 3.3-.6.1 0 .2 0 .3-.1 1.1-.8 2.4-.9 3.6-1.3 1.3-.5 2.6-.8 3.8-1.4 3.5-1.8 7-3.6 9.9-6.3.5-.5 1.2-.8 1.7-1.3 1-1 1.8-2.2 2.7-3.3 1.9-2.2 3-4.8 3.9-7.5.8-2.2 1.5-4.5 2.2-6.7 1.2-3.6 2.5-7.2 3.7-10.9.7-2.1 1.4-4.1 2.2-6.2.6-1.6 1.2-3.2 1.7-4.9 1.1-3.5 3-4.8 5.6-5.1 1.1-.1 2.3-.4 3.3-.9 1.5-.7 2.1-2.1 2.4-3.6.3-1.7-.2-2.7-1.7-3.6-1.2-.7-2.4-1.1-3.8-1.4-1.7-.3-3.3-.9-4.9-1.4-2.3-.7-4.7-1.2-7.1-1.1-.3 0-.6-.1-.9-.1l-6.3-.6c-1.6-.1-3.2.2-4.8.4-2.3.3-4.6.2-7 .3-2 .1-4-.1-6 .4-1.7.4-3.4.7-5.1 1-2 .4-3.8 1.4-5.4 2.8-1.4 1.5-2 3.2-2 5.3 0 .8.5 1.5 1.2 1.8.8.4 1.7.7 2.6.3.9-.4 1.7 0 2.4.4.4.2.7.5 1.1.8.8.6 1.1 1.3.9 2.2-.1.4-.2.9-.3 1.3-.3 1.4-.8 2.8-1.1 4.3-.6 2.7-1.2 5.3-2 8l-2.7 8.7c-.5 1.6-1 3.2-1.7 4.8-.9 2.2-2 4.3-3 6.4-.5.7-1 1.6-2.3 1.9zm346.2-34.1v.2c.9-.2 1.7-.3 2.6-.5 2.1-.4 4.3-.6 6.4-1.2 2.3-.6 4.7-1.4 6.9-2.4 1.8-.8 3.4-1.9 5-2.9 1.5-.9 2.6-2.2 3.2-3.8.4-1.1.5-2.1-.2-3.2-.8-1.3-1.9-2-3.3-2.3-1.3-.3-2.6-1-4-.8-.1 0-.3-.1-.4-.1-1-.4-2-.8-3-1.1-.5-.2-1.1-.4-1.7-.3-2.5.2-5-.4-7.4.7-.1.1-.3 0-.4.1-2.4.1-4.8.7-7.1 1.4-1.9.5-3.7 1.3-5.5 2-3.1 1.1-5.6 2.9-7.5 5.5-1.4 1.9-1.5 4.1.6 5.5.6.4 1.3.7 2 .9 3.4.9 6.8 1.7 10.2 2.6.6.2 1.3.1 2 0 .7-.2 1.1-.3 1.6-.3z" fill="#ffffff"/>
        <path d="M194 53.7c-1.5 1.1-2 4.2-2.7 5.8-1.2 3-2.5 5.9-3.8 8.9-.9 2.2-2.6 4.9-2.9 7.3-.3 3.2 3.3 2.1 5.3 2.8 5.3 1.7-3.9 8.2-5.6 9.1-4.3 2.4-9.1 3.4-13.8 4.5-2.4.5-4.7 1.1-7.2 1.2-1.3 0-2.7.3-4-.2-1.5-.5-2.2-1.3-3.9-1.3-1.1 0-2.1.1-3.1-.6s-1-1.9-1.7-2.9c-1.2-1.9-4.6.8-6.1 1.4-5.3 2.2-10.7 4-16.5 3.5-2.5-.2-4.6-1.4-7.1-1.6-2.6-.3-4.7-1.1-6.1-3.4-2.7-4.3.3-10.3 2-14.5 1-2.6 2.1-5.1 3.1-7.7.7-1.8 2.9-5.3 1.9-7.2-1-1.8-3.2-.8-4.8-1.5-2.5-1-2-3-.7-4.8 2.8-3.7 8.4-5.3 12.6-6.7 2.3-.8 4.6-1.5 7-1.9 2.6-.5 5.3-1.2 8-1.1 2.3.1 4.7-.5 6.7.7 1.9 1.2 4.9.2 6.5 1.9 1.4 1.5.8 4.3.3 6.1-.9 2.8-2.2 5.5-3.3 8.2l-3.3 7.8c-.5 1-3.3 6.5-.2 5.2 2.4-1 4.3-5.1 5.4-7.3 1.3-2.7 2.3-5.7 3.4-8.5 2.1-5.6 3.9-10.5 10-12.5 2.5-.8 5.4-1.4 8-1.5 2.9-.1 6.7-.8 9.4.3 1.3.5 2.3 1 3.8 1.1 1.1.1 2.4.2 3.3.9 2.4 1.9-.2 5.2.2 7.7 2.3-1.9 4.4-3.6 7.2-4.9 3.1-1.3 6-2.2 9.2-3 3.1-.7 6.1-1.5 9.1-2.1 1.3-.2 2.6-.2 3.9-.3.7 0 1.5-.2 2.2 0 1 .2 1.4.8 2.3 1.3 2.3 1.1 4.8-.5 6.3 2.2.6 1 .5 2.2 1.9 2.1.6 0 1.5-.8 2.1-1 1-.5 2-.9 3.1-1.3 5.6-2.4 12.2-4.6 18.3-2.8 4.5 1.4 12.3 1.9 12.8 8 .2 2.7-1.1 5.6-2 8.1-1.3 3.4-2.8 6.7-4.2 10.1-.9 2-3.1 5.8-2.7 8.1.2 1 1.3 2.2 2.4 2 1.7-.2 1.2-2.2 1.3-3.4.7-5.6 3.7-11.5 7.4-15.7 4.5-5.1 9.9-9 15.9-12.1 2.5-1.3 5.1-2.4 7.8-3.3 2.8-1 6.1-1.9 9.1-2.2 3.1-.3 6.1-.7 9.2-.7 3.1 0 6.1 1 9.1 1.8 2.9.8 6 1.4 8.6 3 .7.5 1.5 1.4 2.4 1.3 1-.2 2.3-2.4 3.2-3 2.3-1.6 5.1-1.6 7.7-2.4 3.3-1.1 4-4.2 5.8-6.9 1.4-2 3.4-4.2 5.7-5 2.8-1.1 6.5-1.6 9.5-1.8 1.5-.1 3.1-.1 4.6-.1 1.4 0 2.8-.3 4 .4 1.3.8 1.6 1.1 3.2 1.1 1.3 0 2.5-.1 3.4.9 2 1.9-.8 6.7-1.5 8.8-.3 1-.7 1.8.4 2.5.5.3 1.1.3 1.6.6.7.5 1.1 1 2 1.2 1.8.3 5.1-.6 4.8 2.1-.1 1-.9 2.4 1 2.3 1.5-.1 3.4-1.5 4.8-2 2.9-.9 5.9-1.8 8.8-2.4 1.6-.3 3-.7 4.6-.9 1.4-.2 2.6-.7 4-.7 3.2-.1 6.1-.6 8.9.8 2.3 1.1 5.8-.1 6.9 2.9.5 1.4-.2 2.8-.7 4.1-.5 1.5-1 3.1-1.5 4.6-1.1 3.2-2.4 6.3-3.7 9.4-1.2 3-2.4 6-3.6 8.9-.4 1-1.7 3.2-1.4 4.3.4 1.4 2 1.2 3.2 1.2 3.2.1 2.4-2.2 2.6-4.8.2-2.5 1.3-5.7 2.5-7.9 5.5-11 16.8-19.4 28.7-22.2 5.8-1.4 11.3-2.2 17.3-2.1 3.3 0 6.8.7 9.9 1.6 3 .9 6.1 1.5 9 2.8 2.8 1.2 4.9 3.1 6.7 5.5.3.4 1 1.6 1.7 1.5.3-.1 1-1.2 1.2-1.4.6-.7 1.2-1.3 2-1.9 4.5-3.3 10.8-4.5 16-5.9 1.3-.4 2.6-.4 3.9-.6 1.3-.2 2.5-.7 3.9-.7 1.4-.1 2.9-.3 4.2-.1 1.3.2 1.8 1.2 2.9 1.6 1.2.4 2.5-.1 3.7.2 1.1.3 1.9 1 2.4 2.1.5 1 .6 1.9 1.9 1.8 1.4-.1 3.5-1.8 4.8-2.3 5.5-2.3 11.9-4.6 18-3 1.2.3 2.2 1 3.3 1.2 1.4.3 2.8.4 4.2.9 2.3.8 4.7 2.3 5.6 4.7 1 2.6-.3 5.2-1.1 7.7-1 3.2-2.5 6.2-3.8 9.3-1.2 2.8-3 6-3.5 9-.1.8-.4 2.1.1 2.8.7 1 2.6.9 3.6 1.8 1.8 1.7-.6 4.4-2.1 5.6-2.3 1.9-5.5 3.3-8.3 4.3-4.9 1.7-10.9 3.1-16.2 2.9-3-.1-6-1.3-9-1.8-2.9-.5-4.5-3.1-4.1-5.9.4-2.9 1.7-5.5 2.9-8.2 1.5-3.3 2.9-6.7 4.2-10.1.3-.9 1.6-3.1 1.3-4-.4-1.5-1.4-.7-2.2.1-2.3 2.2-3.8 5.7-5 8.7-1.3 3.1-2.3 6.2-3.3 9.4-.9 2.7-2.3 5.9-4.5 7.8-4.7 3.9-12.4 4.5-18.3 4.2-2.8-.1-5.4-1.3-8.2-1.7-3.2-.4-4.6-2.4-3.9-5.6.6-2.8 2.2-5.5 3.4-8.1 1.3-2.9 2.8-5.8 4-8.8 1.1-2.8 2.7-6.1 2.8-9.1.2-2.9-2.1-3-4.5-3-1.6 0-1.7.2-1.9 1.8-.2 1.3-.2 2.7-.4 4-.7 3.4-2.1 6.9-3.9 9.9-3.1 5.1-7.8 9.6-12.8 12.8-11.1 7.1-24.8 9.9-37.7 7.7-2.7-.5-5.6-1.1-8.3-1.9-2.9-.8-5.8-1.9-8.2-3.9-1-.8-1.8-1.7-2.6-2.7-.9-1.2-1.2-2.2-2.6-1.2-1.1.9-1.9 2.2-3 3-1.2.9-2.5 1.5-3.8 2.1-5.6 2.5-11.3 3.8-17.5 4.6-3.3.4-5.7-.2-8.9-1.2-1.3-.4-2.5-.1-3.8-.5-1.4-.4-2.5-1.1-3.4-2.1-1.8-2-1.2-3.8-.4-6.1 1.2-3.5 2.7-6.8 4-10.3 1-2.8 2.1-5.6 3.2-8.3.6-1.3 3.2-5.3 1.5-6.6-.8-.6-2-.1-2.8-.2-1.3-.2-1.8-.8-2.6-1.7-.8-1-.9-1-2.2-1-1.8 0-3.6-.2-5.3 0-2.9.3-3.5 2.7-4.6 5.1-1.4 3.3-2.8 6.6-4.1 10-.4 1.1-1.1 2.4-1.2 3.6-.2 2 1.3 1.4 2.6 1.2 1.6-.2 2.1.2 3.2 1.2 1.3 1.1 1.6.7 3.1.3 1.3-.3 2.6.4 3.1 1.7.5 1.3-.2 2.7-1 3.8-1.7 2.5-4.6 4-7.3 5.2-5.8 2.5-11.8 4.5-18 5.7-3.1.6-6.3.9-9.4.3-1.6-.3-3.2-1-4.8-1.3-1.4-.3-2.8-.2-4.2-.8-6.5-3.1-2.9-10.8-1-15.7 1.3-3.3 2.6-6.6 4-9.9.6-1.3 1.1-2.7 1.7-4 .6-1.5 2-3.5 2-5.2 0-2.1-2.9-3.5-4.7-2.5-1.1.6-.7 2.1-1 3.2-.3 1.4-.9 2.7-1.8 3.9-3.2 4.3-8 6.5-13.1 7.4-3.1.5-6-1-9-1.5-1.4-.2-2.7-.6-3.8-1.4-.7-.5-1.9-2.4-2.7-2.4-1.7-.1-3.6 6.2-4 7.6-.3 1.1-.4 2.1-.6 3.3-.3 1.5-1 3.4-.1 4.8 1.2 1.8 4.9.1 6.5-.5 3-1.1 6-3 9.2-3.5 1.3-.2 2 .2 3.1.9 1.3.8 1.9.8 3.4.8 2.6-.1 4.2 1.6 4.1 4.2-.2 5.9-9.5 8.4-13.9 10-6.3 2.3-13.1 3.5-19.8 3.6-3.1 0-6.2-.3-9.3-.8-1.6-.3-3-.8-4.5-1.3-1.4-.4-2.8-.3-4.2-.8-2.6-.9-5.1-2.1-7.1-4.1-.7-.7-1.8-2.6-2.9-2.9-1.1-.3-2.2 1.6-2.9 2.2-2.3 1.8-4.9 2.5-7.5 3.7-2.2 1.1-4.1 1.2-6.5 1.8-2.9.7-5.7 1.2-8.7 1.4-3.5.2-6.3-1.3-9.7-1.7-2.2-.3-4.5-1.1-5-3.6-.5-2.9 1.1-6.5 2.2-9.1 1.4-3.1 2.9-6.1 4.1-9.3.4-1.1 3.4-7.7.9-6.9-1.2.4-2.3 2.5-3 3.5-.7 1.1-1.4 2.3-1.9 3.5-1.5 3.2-2.8 6.6-3.9 10-1.6 5.2-3.9 10.5-9.6 12.2-5.6 1.7-13 2.5-18.5.5-2.5-.9-5.9-.1-7.3-2.9-.6-1.2-.3-2.3.1-3.6.5-1.8.7-3.4 1.5-5 2.9-6 5.7-12 7.7-18.3.6-1.8 1.4-4.5-1.1-5.2-1.2-.4-2.6.3-3.7-.4-.2-1.3-.4-2.7-.9-3.8zm29.5-9.6c-3.4-.1-31 5.6-27.4 11.2.9 1.4 3.5.3 4.8 1 1.7.9 1.7 2.6 1.4 4.3-1 5.1-3.2 9.9-5.3 14.6-1.1 2.5-2.3 4.9-3.4 7.4-.7 1.7-2.3 4.4-1.5 6.2.9 1.9 3.4 1.8 5.2 1.8 2.9.1 5.8.2 8.7-.3 4.8-.7 9.1-2.2 11.5-6.8 2.4-4.5 3.3-9.8 5.4-14.5 1.9-4.1 4.5-8.8 8.8-10.8 1.7-.8 4.3-1.3 5.9-.1 1.7 1.3.8 3.4.3 5-1.8 5.2-4 10.1-6.1 15.2-1.1 2.7-4.5 8.7-1.4 11.2 1.7 1.3 4.5 1.2 6.5 1.2 2.9 0 5.7-.5 8.6-1.2 4.7-1.2 10-2.4 13.8-5.7 1-.9 2.7-2.7 1.7-4.1-1.2-1.5-4.3-.5-4.5-3.3-.1-2.3 1.6-5.2 2.5-7.2 1.2-2.8 2.3-5.5 3.5-8.3 2-4.7 5.7-11.6.1-15.2-4.3-2.8-11-2.1-15.6-.5-3.1 1.1-6 2.5-9 3.8-2.2.9-5.4 3.3-7.8 3.2-2.6-.1-1.9-3.4-2.2-5.1-.2-2.7-2.1-3-4.5-3zm306.6 0c-.1-.8-26.2 4.4-27.5 9.9-.5 2.3 2.3 1.8 3.7 2 2 .3 3.3 1.5 3.1 3.6-.5 5-3.3 10.1-5.3 14.7l-3.3 7.5c-.8 1.8-2.6 4.6-2 6.6.7 2.3 3.7 2.2 5.6 2.2 2.8.1 5.5 0 8.2-.3 5.1-.6 9.4-2.4 11.7-7.2 2.3-4.7 3.4-10 5.6-14.8 1.8-4 4.7-8.5 8.9-10.2 1.6-.6 4.1-1.1 5.6.1 2 1.7.5 4.2-.2 6.2-1.8 5-4 9.9-6.1 14.8-1.4 3.2-4.5 9.5.6 11.1 4.8 1.5 10.7-.1 15.4-1.2 4.3-1.1 10-2.7 12.9-6.3 1.3-1.6 1.6-2.9-.6-3.6-2.4-.8-3.4-1.6-2.6-4.2 1.5-5.2 3.8-9.9 5.9-14.9 1.8-4.2 4.9-10.1.6-13.7-4.4-3.6-11.6-2.6-16.5-.9-2.9 1-5.7 2.2-8.4 3.5-2.2 1-5.2 3-7.7 3.3-2.9.3-2.5-3-2.8-5-.5-3-2.2-3.2-4.8-3.2zm-384.8 0c-5.1-.5-10.9 1.5-15.6 3-2.3.8-4.7 1.5-6.9 2.6-1.8.8-5.3 2.4-6.1 4.4-1.1 2.6 2.2 2.6 3.8 2.9 2.2.4 3.4 1.3 2.8 3.7-1.2 5-3.8 10.1-5.9 14.8-1.5 3.6-4.2 9.9-.8 13.2 3.1 3 9.6 2.3 13.5 1.5 5.2-1.2 10-3.5 14.7-5.9 1.6-.8 4.4-2.8 6.1-1.2 1.8 1.6.3 4.5 1.5 6.4 1 1.6 4.1 1.2 5.7 1.2 2.8-.1 5.5-.7 8.2-1.4 4.8-1.2 9.9-2.9 14-5.7 1.1-.8 3.8-2.8 3.6-4.4-.3-2.1-4.1-1.2-5.6-1.9-1.8-.9-1.3-2.7-.8-4.3.9-2.7 2.2-5.3 3.3-7.9 2.1-5.1 4.2-10.2 6.2-15.4.8-2.1 1.9-4.3-1-5.3-2.2-.8-5.8-.1-8.2 0-4.3.2-10.5 1.1-13.4 4.5-3.1 3.6-4 9.2-5.8 13.4-2 4.8-4.6 9.7-8.8 12.9-1.7 1.3-4.6 2.9-6.8 1.9-2.7-1.2-1.4-4.8-.8-6.8 1.7-5.7 4.6-11.1 6.8-16.6.8-2.1 2.7-5.3 1.8-7.7-.7-2.4-3.6-1.9-5.5-1.9zm326.5-.8c-12.8.8-25.3 4.2-34.9 13.1-7.3 6.8-16 21.8-6 30 4.6 3.8 11.7 5.1 17.6 5.1 6.3 0 12.8-1 18.7-3.1 11.1-4 21.8-11.7 25.9-23.3 1.9-5.3 2.2-11.7-2.1-16-4.9-4.6-12.8-5.6-19.2-5.8zm-156.2.1c-8.9-.5-18.5 2.8-26.2 7.1-7.2 3.9-14.2 9.8-17.9 17.2-1.8 3.7-3.4 8.4-2.8 12.5.6 4.1 3.6 7 7.3 8.7 8 3.8 17.8 3 26.2 1.3 4.5-.9 8.7-2.5 12.9-4.2 2.8-1.1 9.1-3.8 7.9-7.9-1.3-4.7-7.5-1-10.2.1-3.8 1.5-8.5 3.5-12.8 2.6-4.8-1-3.7-6.3-3-9.8.8-4 2.4-7.9 4.4-11.4 1.9-3.1 4.9-7.3 8.9-7.4 5.7-.1.6 5.7-.2 8-1.8 4.9 5.6 5.9 8.9 5.4 4.2-.6 8.5-3.1 11-6.5 2.7-3.8 2.7-8.7-1-11.8-3.6-3.1-8.8-3.7-13.4-3.9zm56.8-13.3c-4.1.2-8.6.5-12.4 2-3.5 1.3-5.2 4.5-7.1 7.5-.9 1.3-1.7 2.9-3 3.8-1.6 1.1-3.9 1.2-5.8 1.5-2.7.5-6 2.6-6.1 5.8-.1 3.2 5.5 1.2 7.4 2.7 1.2 1 .6 2.2.1 3.5-.8 2.1-1.7 4.2-2.5 6.3-1.6 4-3.3 8-4.9 12-1.3 3.3-3.9 8-2.5 11.6 1.2 3.4 5.6 3.9 8.7 4 3.9.1 7.9-.7 11.6-1.8 3.9-1.1 7.8-2.2 11.5-3.9 2.9-1.3 6.6-3.1 8-6.1.8-1.7-.1-3.1-2-3-1.7.1-3.5 1.2-5.2 1.5-4.1.7-5.8-2.3-4.6-5.9 1.3-3.9 2.8-7.8 4.4-11.6 1.2-3 2.6-7.2 6.3-7.6 2-.2 4.1.2 6.1-.2 1.7-.4 2.2-1.4 2.8-3 .4-.9 2.1-3.6 1.4-4.6-.7-1-3.9-.5-4.8-.5-1.5 0-3.8.3-4.6-1.3-.7-1.5.6-3.8 1.1-5.2.5-1.5 2.2-4.4 1.8-6-.8-2-4.1-1.5-5.7-1.5zm21.2 60.6c5.5-.1 11-1.6 16.1-3.5 2.4-.9 4.9-2 6.8-3.7 1.3-1.1 3.7-4.1.9-4.7-1.5-.3-4.1.6-4.8-1.3-.7-1.8 1.5-5.3 2.1-6.9 2.2-5.6 4.5-11.1 6.6-16.8.8-2.2 2.3-5.2 2.1-7.7-.3-3-4.3-2.1-6.4-1.9-5.6.3-11.1 1.6-16.5 3.1-3.3.9-11.5 2.5-11.9 7-.3 2.6 2.5 1.9 4.2 2.3 3.5.7 1.6 4 .7 6.1-2.5 5.9-4.7 12.1-7 18.1-1 2.5-3.1 5.8-.5 8 2.3 2.1 4.9 1.3 7.6 1.9z"/>
        <path d="M68.1 75c2.1-.5 2.8-3.1 3.6-4.8 1.2-2.5 2.2-5 3.1-7.6 1.7-5.2 3.5-10.5 4.7-15.8.5-2.2 1.8-5.2 1.7-7.5-.1-1.2-.5-1.6-1.4-2.3-1.2-.9-1.8-.8-3.3-.7-5.8.1-3-6.3 0-8.4 4.1-2.7 10-3 14.7-3.2 5.4-.1 10.8-.9 16.2-.3 2.4.2 4.8.2 7.2.6 2.7.5 5.3 1.6 8 2.2 1.7.4 4.1.9 5.1 2.4s.4 3.9-.6 5.2c-2.4 2.9-7 1.2-9.3 4.7-1.2 1.9-1.8 4.3-2.5 6.4l-2.7 7.8-5.4 15.9c-1.7 4.8-4.1 9.2-8.1 12.5-7.7 6.2-16.6 9.9-26.4 11.1-5.3.7-10.8 1.5-16.2.6-4.8-.8-10.2-1.6-14.7-3.5-4.8-2-9.6-5.3-9.3-11.2.2-5.3 4.4-9.6 8.9-11.9 2.4-1.2 5.1-1.9 7.8-2.2 3.1-.4 5.4.4 8.4 1.2 2.6.7 5.5 1 7.6 2.8 2 1.6 2.6 3.6 2.9 6zm34.2-49.7c-4.9.2-9.8.3-14.7.7-3.9.4-10.9.8-13 4.8-.7 1.3-1.1 3.4.6 4 1.9.7 4.5-.5 6.3 1 1.6 1.4.4 4.8 0 6.5-.6 2.7-1.3 5.3-2 8-2.5 9.7-5.4 21-12.3 28.6-1.8 2-7.7 5.8-9.7 1.9-1.1-2.2 2-4.6 2.7-6.6.9-2.3 0-4.6-1.8-6.2C55 65.1 48 65.7 44 67.2c-3.9 1.4-7.7 3.9-9.4 7.8-4.9 11.1 8.8 15.1 16.9 16.3 5.1.8 10.7 0 15.8-.8 5.2-.9 10.3-2.2 15.2-4.4 4.4-1.9 8.7-4.6 11.9-8.1 3.4-3.7 5-8.2 6.6-12.8 2.1-6 4.1-12.1 6.2-18.1 1.4-4 2.2-10.3 6.6-12.2 2.1-.9 5-.4 6.5-2.4 1.4-1.8.8-3.8-1-4.9-4.8-2.7-11.7-2-17-2.3z"/>
        <path d="M414.3 40.9c-3.6.5-6.8-.7-10.3-1.5-2.6-.7-7-1.2-7-4.7 0-2.7 3-5.2 5.1-6.5 2.8-1.8 6.1-2.8 9.3-3.7 3.1-.9 6.4-1.6 9.5-1.9 1.6-.2 3.6-.2 5.3 0 1.6.1 2.9 1.1 4.4 1.4 2.4.5 5.7.5 7.4 2.7 1.9 2.4.1 5.4-1.9 7-3 2.4-6.7 4-10.4 5.2-1 .1-11.3 2.5-11.4 2zm9.3-17.5c-7 .8-14 1.8-20.3 5.3-2 1.1-5.3 3.4-5.1 6 .2 2.9 5.5 3.4 7.7 3.6 3.5.4 7-.4 10.4-1.2 3.3-.8 6.6-1.8 9.5-3.4 2.1-1.1 6.4-3.5 6.1-6.5-.4-3.4-5.9-3.4-8.3-3.8z"/>
        <path d="M223.5 44.1c1.9 0 3.8 0 4.4 2.1.5 1.7-.5 4.5 1.2 5.7 1.6 1.1 4.4-.8 5.9-1.5 2.6-1.2 5.2-2.3 7.8-3.4 5.1-2.2 9.9-3.6 15.5-2.7 4.5.7 8.1 3.7 7 8.6-1.2 5.5-4 10.8-6.2 16-.9 2.1-2.8 5.2-2.7 7.6.2 2.8 3.2 1.8 4.5 3.3 2.6 3-6.6 7.1-8.4 7.7-4.7 1.8-10.1 3.2-15.2 3.3-3.8.1-8.9-.1-8.1-5.2.8-5.3 3.9-10.6 6-15.5 1-2.3 1.8-4.6 2.6-6.9.6-1.6 1.4-3.8-.3-5-3.7-2.8-9 1.8-11.1 4.5-3 4-4.9 8.9-6.4 13.6-1.5 4.6-2.9 9.8-7.5 12.2-4.5 2.4-10.5 2.3-15.4 2.1-1.7-.1-4.1.1-5.1-1.6-1-1.8.5-4.4 1.2-6.1 2.4-5.7 5.2-11.2 7.3-17.1 1.4-3.7 3.7-9.8-2.3-9.9-1.2 0-2.3.2-2.6-1.2-.2-1.1.7-2.1 1.5-2.8 2.2-1.9 5.1-2.9 7.8-3.8 5.9-1.9 12.7-4.2 18.6-4z" fill="#fff200"/>
        <path d="M530.1 44.1c2 0 3.8-.1 4.5 2.2.5 1.7-.3 4.6 1.5 5.7 1.7 1 4.6-1 6.2-1.7 2.4-1.1 4.8-2.3 7.3-3.3 5.2-2.1 10.6-3.7 16.3-2.6 4.3.9 7.4 4 6.3 8.4-1.2 5-3.7 9.7-5.7 14.4-1.1 2.5-2 5.1-2.7 7.8-.7 2.5-.1 3.3 2.3 4.1 2.3.8 2.5 1.8.9 3.7-1.6 1.9-4 3.1-6.2 4.1-4.5 2-9.7 3.4-14.7 3.8-3.5.3-10.7.8-10.2-4.5.5-5 3.6-10 5.6-14.5 1-2.3 1.9-4.7 2.7-7.1.7-2 2.2-4.5.2-6.2-3.5-3.1-9.1 1.9-11.1 4.4-3.1 3.9-4.7 8.8-6.3 13.5-1.5 4.4-2.8 9.7-7.1 12.1-4.5 2.5-10.3 2.5-15.4 2.3-1.8 0-4.7.1-5.5-2-.8-2.1 1.1-5 1.9-6.9 2.3-5.5 5.1-11 7.1-16.6.7-2 2.3-5.3 1.3-7.4-1.2-2.6-3.9-1-5.8-2-4.4-2.4 7.7-7.3 9-7.8 1.6-.6 17.4-5 17.6-3.9z" fill="#fff200"/>
        <path d="M145.3 44.1c1.6 0 3.9-.5 5.1.8 1.6 1.7.2 4.7-.5 6.5-2 5.1-4.1 10.2-6.3 15.2-1.3 3-4.6 11.2 1.7 10.4 4.5-.6 7.8-4.7 10.1-8.3 2.8-4.4 4.5-9.3 6.2-14.2 1.6-4.8 3.8-7.6 8.8-9 2.4-.6 4.6-1.3 7.1-1.4 2.5-.1 5.9-.8 8.3-.1 2.9.8 2.3 2.9 1.4 5l-3.3 8.4c-2 5.1-4.7 10.2-6.3 15.4-.5 1.6-1 3.4.8 4.3 1.3.7 5.1-.1 5.5 1.7.4 1.6-2.2 3.6-3.2 4.4-2.2 1.6-4.7 2.7-7.2 3.7-4.8 1.9-10.1 3.4-15.4 3.6-1.6.1-4.7.4-5.7-1.2-1.2-1.8.2-4.5-1.3-6.2-1.6-1.8-4.2 0-5.9.8-2.4 1.2-4.9 2.4-7.4 3.5-5 2.1-10 3.3-15.5 3.1-5.2-.3-7.6-3-7.1-8 .2-2.9 1.4-5.3 2.5-8 1.2-2.8 2.3-5.5 3.4-8.3.8-2 2.9-5.4 2.2-7.7-.8-2.4-4.1-1.3-5.8-2.3-4.9-2.6 8.3-8 10.1-8.6 2.9-1 5.9-1.9 8.9-2.6 2.9-.3 5.9-1.2 8.8-.9z" fill="#fff200"/>
        <path d="M471.8 43.3c10.6.2 24.3 4.1 22.4 17.3-1.8 12-12.1 21.3-22.7 26-11 4.9-25.8 7.3-37.1 1.9-5.4-2.6-8.5-7.2-7.8-13.3.6-5.8 3.6-11.3 7.3-15.7 9.6-11 23.8-15.3 37.9-16.2zM454.4 83c3.1.1 5.6-1.9 7.1-4.6 1.8-3.4 3.3-7.1 4.8-10.6 1.4-3.5 7.8-16.7-.4-16.2-6.6.4-9.2 9.6-11.2 14.6-1.1 2.9-7.8 17.7-.3 16.8z" fill="#fff200"/>
        <path d="M315.6 43.4c7 .3 19.8 3.4 15.7 13.3-2.7 6.7-13.3 11.9-19.8 7.5-4.1-2.7.7-6.3 1.5-9.3.5-1.7-.6-2.6-2.3-2.7-2.2-.1-4 1.1-5.5 2.5-3 2.8-4.9 6.6-6.4 10.4-.8 1.9-1.4 3.8-1.8 5.9-.4 2-1.1 4.5-.6 6.4 1.2 4.3 6.1 3.7 9.6 3.1 4.6-.9 8.6-3.9 13.2-4.6 1.7-.3 3.2.5 3.7 2.3.5 1.8-.7 3.5-2 4.6-3.4 2.9-8.2 4.3-12.4 5.7-8.5 2.9-17.5 3.8-26.3 2.2-4.1-.7-8.4-2.1-11.2-5.4-2.7-3.2-2.8-7.1-1.9-11 2.2-9.6 9.2-17 17.3-22.2 8.4-5.2 19.3-9.3 29.2-8.7z" fill="#fff200"/>
        <path d="M372.4 30.1c1.4 0 3.7-.4 4.8.7 1.4 1.4-.1 3.7-.6 5.3-.7 2.1-3.5 7-.1 8 1.6.5 7.7-1.1 8 1.2.1 1.2-1.4 3.9-1.9 5-.6 1.3-1.5 1.9-3 2-3.3.4-6.9-.9-9.2 2.3-2.3 3.3-3.5 7.5-4.9 11.2-1 2.7-4 7.5-2.1 10.3 2.5 3.6 6.7.2 9.8 0 5-.4.6 5.2-1 6.3-3 2.1-6.5 3.6-10 4.7-7 2.3-16 5.6-23.4 2.9-3.9-1.4-4-5.2-3-8.6 1.1-4 3-7.9 4.6-11.8 1.7-4.2 3.4-8.4 5.1-12.7.4-1.1 1.1-2.4.1-3.4-1.2-1.2-3.7-1-5.1-1-4.2-.1-1.8-4.7.3-6.3 3.3-2.4 7.8-.9 10.6-4.3 2.5-3.1 3.8-7.3 7.4-9.3 3.9-2 9.3-2.3 13.6-2.5z" fill="#fff200"/>
        <path d="M393.6 90.7c-2.4-.5-4.5.1-6.7-1.2-2.8-1.6-2.4-3.6-1.4-6.2 2.1-5.6 4.3-11.2 6.4-16.8.8-2.2 2.6-4.9 2.9-7.2.5-3.5-3.3-2.2-5.1-3-2-.9-1-3.2.2-4.4 1.7-1.8 4.6-2.7 6.8-3.5 5.2-1.8 10.7-3.1 16.1-4 2.4-.4 5.9-.8 8.3-.4 3.1.5 2.2 3.4 1.6 5.6-1.7 5.6-4.1 11-6.2 16.5-1.1 2.7-2.2 5.4-3.2 8.1-.7 1.7-1.4 3.7.9 4.3 1.9.5 6-.7 4.2 2.7-1.3 2.4-4 3.8-6.4 4.9-5.6 2.7-12.2 4.5-18.4 4.6z" fill="#fff200"/>
        <path d="M102.3 25.3c4.8.3 10.1 0 14.8 1.4 1.8.5 3.9 1.3 4 3.5 0 2.6-2 3.5-4.1 3.9-4.6 1-6.3 2.9-7.7 7.3-1.7 5.2-3.6 10.3-5.3 15.5-1.7 5-3.2 10.4-5.5 15.2-2 4.3-5.3 7.7-9.2 10.3-8.5 5.8-19.4 8.4-29.6 9-5.2.3-10.2-.1-15.3-1.6-4.2-1.2-9-3.5-10.4-8-1.2-4.1.9-8.5 4-11.2 3.8-3.2 8.6-4.6 13.6-4.4 2.4.1 4.8.2 6.7 1.7 1.8 1.5 2.9 3.7 2.2 6-.6 2-3.7 4.3-3 6.6.6 1.9 3.2 2 4.8 1.7 4.1-.8 7-5.4 8.9-8.8 2.6-4.7 4.5-9.7 6.1-14.8 1.9-6 3.8-12.2 4.8-18.4.4-2.6.5-4.5-2.3-5-1.6-.3-5 .5-5.5-1.6-1.2-5.4 7.5-6.8 10.9-7.3 5.6-.7 11.4-.8 17.1-1z" fill="#fff200"/>
        <path d="M423.6 23.4c2.4.4 7.9.4 8.3 3.8.3 3-3.9 5.3-6.1 6.5-3 1.6-6.3 2.6-9.5 3.4-3.4.8-6.9 1.7-10.4 1.2-2.1-.3-7.4-.7-7.7-3.6-.2-2.7 3.1-4.9 5.1-6 6.2-3.5 13.3-4.5 20.3-5.3z" fill="#fff200"/>
        <path d="M454.4 83c-7.5.9-.9-13.9.3-16.8 2-5 4.6-14.2 11.2-14.6 8.2-.5 1.9 12.7.4 16.2-1.4 3.5-2.9 7-4.7 10.3-1.4 2.8-3.9 5-7.2 4.9zm4.1-3.6c3.4-1.7 4.6-6.9 6-10.2.5-1.2 5.3-11.5 3.7-12.1-2-.8-5.4 8.5-5.9 9.8-1.6 3.8-3.5 8.3-3.8 12.5z"/>
        <path d="M458.5 79.4c.3-4.1 2.1-8.4 3.6-12.1.5-1.3 4.1-11 6-10.2 1.6.7-3.1 10.6-3.5 11.7-.9 2.2-1.8 4.3-2.8 6.4-.8 1.9-1.4 3.3-3.3 4.2z" fill="#ffffff"/>
        <path d="M98.8 99.6h9.7v44.6h-9.7V99.6z" fill="#ec008c"/>
        <path d="M147.9 123.1h-9.2c-.2-1.2-.6-2.3-1.3-3.3-1-1.3-2.6-2-4.7-2-3 0-5.1 1.4-6.2 4.3-.6 1.5-.9 3.6-.9 6.1 0 2.4.3 4.4.9 5.8 1.1 2.7 3.1 4.1 6.1 4.1 2.1 0 3.6-.5 4.5-1.6.9-1.1 1.4-2.5 1.6-4.2h9.2c-.2 2.6-1.2 5.1-3 7.4-2.8 3.8-7 5.7-12.5 5.7s-9.6-1.6-12.2-4.7-3.9-7.2-3.9-12.3c0-5.7 1.4-10.1 4.3-13.2 2.9-3.1 6.9-4.7 11.9-4.7 4.3 0 7.9.9 10.6 2.8 2.7 1.8 4.3 5.1 4.8 9.8z" fill="#ec008c"/>
        <path d="M184.9 134.5c-.2 2-1.3 3.9-3.2 6-2.9 3.2-7.1 4.8-12.4 4.8-4.4 0-8.2-1.4-11.6-4.1-3.3-2.7-5-7.1-5-13.2 0-5.7 1.5-10.1 4.5-13.1s6.9-4.6 11.8-4.6c2.9 0 5.4.5 7.7 1.5s4.2 2.7 5.7 4.9c1.3 2 2.2 4.2 2.6 6.8.2 1.5.3 3.7.3 6.5h-23.6c.1 3.3 1.2 5.6 3.3 7 1.2.8 2.7 1.2 4.5 1.2 1.9 0 3.4-.5 4.5-1.5.6-.5 1.2-1.3 1.7-2.3h9.2zm-8.9-10.1c-.1-2.3-.9-4-2.2-5.2-1.3-1.2-2.9-1.8-4.8-1.8-2.1 0-3.7.6-4.8 1.9-1.1 1.3-1.9 2.9-2.2 5.1h14z" fill="#ec008c"/>
        <path d="M222.5 123.1h-9.2c-.2-1.2-.6-2.3-1.3-3.3-1-1.3-2.6-2-4.7-2-3 0-5.1 1.4-6.2 4.3-.6 1.5-.9 3.6-.9 6.1 0 2.4.3 4.4.9 5.8 1.1 2.7 3.1 4.1 6.1 4.1 2.1 0 3.6-.5 4.5-1.6.9-1.1 1.4-2.5 1.6-4.2h9.2c-.2 2.6-1.2 5.1-3 7.4-2.8 3.8-7 5.7-12.5 5.7s-9.6-1.6-12.2-4.7-3.9-7.2-3.9-12.3c0-5.7 1.4-10.1 4.3-13.2 2.9-3.1 6.9-4.7 11.9-4.7 4.3 0 7.9.9 10.6 2.8 2.7 1.8 4.3 5.1 4.8 9.8z" fill="#ec008c"/>
        <path d="M247.3 119.2c-3.6 0-6.1 1.1-7.3 3.4-.7 1.3-1 3.2-1 5.9v15.8h-9.1v-33h8.6v5.7c1.4-2.2 2.6-3.7 3.6-4.5 1.7-1.4 3.9-2 6.6-2h1.2v8.8c-.6-.1-1.1-.1-1.5-.1h-1.1z" fill="#ec008c"/>
        <path d="M285.9 134.5c-.2 2-1.3 3.9-3.2 6-2.9 3.2-7.1 4.8-12.4 4.8-4.4 0-8.2-1.4-11.6-4.1-3.3-2.7-5-7.1-5-13.2 0-5.7 1.5-10.1 4.5-13.1s6.9-4.6 11.8-4.6c2.9 0 5.4.5 7.7 1.5s4.2 2.7 5.7 4.9c1.3 2 2.2 4.2 2.6 6.8.2 1.5.3 3.7.3 6.5h-23.6c.1 3.3 1.2 5.6 3.3 7 1.2.8 2.7 1.2 4.5 1.2 1.9 0 3.4-.5 4.5-1.5.6-.5 1.2-1.3 1.7-2.3h9.2zm-8.9-10.1c-.1-2.3-.9-4-2.2-5.2-1.3-1.2-2.9-1.8-4.8-1.8-2.1 0-3.7.6-4.8 1.9-1.1 1.3-1.9 2.9-2.2 5.1h14z" fill="#ec008c"/>
        <path d="M295 114.8c2.4-2.9 6.5-4.4 12.3-4.4 3.8 0 7.1.7 10 2.1s4.4 4.1 4.4 8.1v15.1c0 1 0 2.3.1 3.8.1 1.1.2 1.9.5 2.3.3.4.7.7 1.3 1v1.3h-9.8c-.3-.7-.5-1.3-.6-1.9s-.2-1.3-.3-2c-1.2 1.3-2.7 2.4-4.3 3.3-1.9 1.1-4.1 1.6-6.6 1.6-3.1 0-5.7-.9-7.7-2.6-2-1.7-3-4.1-3-7.2 0-4.1 1.6-7 4.9-8.8 1.8-1 4.4-1.7 7.9-2.1l3.1-.4c1.7-.2 2.9-.5 3.6-.8 1.3-.5 1.9-1.3 1.9-2.5 0-1.4-.5-2.3-1.5-2.8s-2.4-.8-4.3-.8c-2.1 0-3.6.5-4.5 1.5-.6.7-1.1 1.8-1.3 3h-8.7c.3-2.6 1.1-4.9 2.6-6.8zm6.7 23.2c.8.7 1.9 1 3.1 1 1.9 0 3.7-.5 5.4-1.6s2.5-3.1 2.5-6v-3.2c-.6.3-1.1.6-1.7.8s-1.4.4-2.4.6l-2 .4c-1.9.3-3.3.7-4.1 1.2-1.4.8-2.1 2-2.1 3.7 0 1.4.5 2.4 1.3 3.1z" fill="#ec008c"/>
        <path d="M350.4 120.3c-.8-1.6-2.2-2.4-4.5-2.4-2.6 0-4.3.8-5.2 2.4-.5.9-.7 2.3-.7 4.1v19.8h-9.1v-32.9h8.8v4.8c1.1-1.7 2.2-2.9 3.2-3.7 1.7-1.3 4-1.9 6.8-1.9 2.6 0 4.8.6 6.4 1.7 1.3 1 2.3 2.3 3 4 1.2-1.9 2.6-3.4 4.4-4.3 1.9-.9 3.9-1.4 6.2-1.4 1.5 0 3 .3 4.5.8 1.5.6 2.8 1.6 4 3 1 1.1 1.6 2.6 2 4.2.2 1.1.3 2.7.3 4.9l-.1 20.8H371v-21c0-1.2-.2-2.3-.6-3.1-.8-1.5-2.3-2.3-4.4-2.3-2.5 0-4.2 1-5.1 3-.5 1-.7 2.3-.7 3.8v19.6H351v-19.6c0-2-.2-3.4-.6-4.3z" fill="#ec008c"/>
        <path d="M419.3 134.5c-.2 2-1.3 3.9-3.2 6-2.9 3.2-7.1 4.8-12.4 4.8-4.4 0-8.2-1.4-11.6-4.1-3.3-2.7-5-7.1-5-13.2 0-5.7 1.5-10.1 4.5-13.1s6.9-4.6 11.8-4.6c2.9 0 5.4.5 7.7 1.5s4.2 2.7 5.7 4.9c1.3 2 2.2 4.2 2.6 6.8.2 1.5.3 3.7.3 6.5h-23.6c.1 3.3 1.2 5.6 3.3 7 1.2.8 2.7 1.2 4.5 1.2 1.9 0 3.4-.5 4.5-1.5.6-.5 1.2-1.3 1.7-2.3h9.2zm-8.9-10.1c-.1-2.3-.9-4-2.2-5.2-1.3-1.2-2.9-1.8-4.8-1.8-2.1 0-3.7.6-4.8 1.9-1.1 1.3-1.9 2.9-2.2 5.1h14z" fill="#ec008c"/>
        <path d="M444.4 119.2c-3.6 0-6.1 1.1-7.3 3.4-.7 1.3-1 3.2-1 5.9v15.8H427v-33h8.6v5.7c1.4-2.2 2.6-3.7 3.6-4.5 1.7-1.4 3.9-2 6.6-2h1.2v8.8c-.6-.1-1.1-.1-1.5-.1h-1.1z" fill="#ec008c"/>
        <path d="m467.6 135.6 7.1-24.3h9.6l-11.8 32.4c-2.3 6.3-4.1 10.1-5.4 11.6s-4 2.3-8 2.3h-1.9c-.5 0-1.2 0-2.2-.1v-6.9l1.1.1c.9 0 1.7 0 2.5-.1s1.5-.3 2-.7c.5-.3 1-1.1 1.5-2.1s.6-1.8.6-2l-12.6-34.4h10l7.5 24.2z" fill="#ec008c"/>
        <path d="M29 32v2.5h-7.3v18.3h-3V34.4h-7.3V32H29z" fill="#ec008c"/>
        <path d="M31.9 31.9h2.7v7.7c.6-.8 1.2-1.3 1.7-1.6.9-.5 1.9-.8 3.2-.8 2.3 0 3.8.8 4.7 2.3.4.8.7 2 .7 3.5v9.7h-2.7v-9.5c0-1.1-.1-1.9-.4-2.4-.5-.8-1.4-1.2-2.7-1.2-1.1 0-2.1.4-3 1.1-.9.7-1.3 2.1-1.3 4.1v8h-2.7V31.9z" fill="#ec008c"/>
        <path d="M59.1 38c1 .5 1.8 1.2 2.4 2 .5.8.9 1.7 1.1 2.7.2.7.2 1.8.2 3.3H51.3c0 1.5.4 2.8 1.1 3.7s1.8 1.4 3.3 1.4c1.4 0 2.5-.4 3.3-1.3.5-.5.8-1.1 1-1.8h2.6c-.1.6-.3 1.2-.7 1.9-.4.7-.8 1.2-1.3 1.7-.8.8-1.8 1.3-3 1.5-.6.2-1.4.2-2.2.2-2 0-3.6-.7-5-2.1-1.4-1.4-2-3.3-2-5.8 0-2.4.7-4.4 2.1-5.9 1.4-1.5 3.2-2.3 5.4-2.3 1.1.1 2.2.3 3.2.8zm1 5.9c-.1-1.1-.4-2-.7-2.6-.7-1.2-1.9-1.8-3.6-1.8-1.2 0-2.2.4-3 1.3-.8.8-1.3 1.9-1.3 3.2h8.6z" fill="#ec008c"/>
        <path fill="#ffffff" stroke="#000000" stroke-width=".586" stroke-miterlimit="10" d="m532.2 126.8 2.9 3.7-2 13.5-6.3-1-1.8-13.7 7.2-2.5z"/>
        <path d="M529 150.8c-.2.2-.4 4.8-5.3 7.4-.1-.1-5.3-7.1-5.3-7.1l10.6-.3z" fill="#ffffff" stroke="#000000" stroke-width=".586" stroke-miterlimit="10"/>
        <path d="M533.3 150.3c-.1.3.3 8.6.3 8.6l-6.4.1-.1-10.2 6.2 1.5z" fill="#ffffff" stroke="#000000" stroke-width=".586" stroke-miterlimit="10"/>
        <path d="m520.6 115.4-1 8.1s8.7 7.4 9.2 7.3 1 1 2.7-.1 6.6-5.1 6.6-5.1l1-7.8-5.6-3.7-6.9-2-6 3.3z" fill="#ffde17" stroke-width=".592" stroke="#000000" stroke-miterlimit="10"/>
        <path d="m538.5 154.4 4-34.1 18.7 7.7-20.9 27.2c.1-.1-1.2 1.2-1.8-.8z" fill="#fff200" stroke-width=".586" stroke="#000000" stroke-miterlimit="10"/>
        <path d="M542.6 120.3s4.3-10.2 12.2-8.2c.4-.1 11.1 2.2 6.5 15.9-.1.2-14.8.6-18.7-7.7z" fill="#ffffff" stroke="#000000" stroke-width=".586" stroke-miterlimit="10"/>
        <path d="M523.9 104.6s-1.1-.8-2.1 1.3-1.1 2.3-2.1 2.6c-1 .3-3.4 1.6-3.5 2.7-.1 1.1-.3 2.3.1 3.9s-.1 3.1-.7 3.7c-.7.7-1.9 2.2-1.5 3.1s1.9 2 1.5 3.2-2.5 3.9-2.5 3.9 2.1 3.1 2.3 3.3c.2.1 4.1.9 4.1.9l7-.4-.1-2.4s1.5 0 1.2-.9-2.5-1.1-2.8-2.2c-.3-1.1 0-2.3-.5-2.7-.5-.4-2.6-1.2-2.8-2.3-.2-1 .7-1.8.8-2.7.1-.9-.1-2.4-.1-2.4s5.4-.4 6.4-3.5c.1-.1 1.5 3.5 5.7 2.1.2.1-.1 2.9 2.3 3.4.1.2-1.1.7-.7 1.8s.7 1.5.7 1.8-1 1.3-1.2 1.8c-.2.4.3 1.4.1 1.6-.2.2-2.9 2.3-3.1 3.1 0 0-1.3.2-.7.7.6.4 1.8 0 1.8.7s-.4 1.6.1 1.8c.5.2 1.4 1.2 2.9-.9s2.1-2.8 3.2-3.1c1.1-.4 2.8-1.2 3-2.5.2-1.3 2.4-8.5 2.4-8.5l-5.6-6.7-15.6-6.2z" fill="#fff200" stroke-width=".586" stroke="#000000" stroke-miterlimit="10"/>
        <path d="M496.4 129.4c4 .1 16.8 0 21 0 .8 0 1.4.6 1.4 1.4v.6h-23.7v-.7c.1-.8.6-1.3 1.3-1.3z" fill="#ffffff" stroke="#000000" stroke-width=".586" stroke-miterlimit="10"/>
        <path d="M498.6 117.4c-.6-.2 3.8 8 4.7 9.8.1.1.2.1.3 0l3.5-10.2c0-.1-.1-.3-.2-.2-1.1.5-4.4 2-8.3.6z" fill="#ffffff" stroke="#000000" stroke-width=".586" stroke-miterlimit="10"/>
        <path fill="#ffffff" stroke="#000000" stroke-width=".586" stroke-miterlimit="10" d="m503.2 127.2-2.5 2 5 .1-2.5-2.1z"/>
        <path d="M498.6 117.4s-2.9-3.4 6.2-3.5c.4-.1.8.6 1.8-1.5 1-2.3 1.2-3.8 2.1-3.4.9.4 1.2 1 1 1.7-.2.7-2.6 6.3-2.6 6.3s-5.7 2.2-8.5.4z" fill="#ffffff" stroke="#000000" stroke-width=".586" stroke-miterlimit="10"/>
        <path d="M506.8 119.4c.5.8 3.1 7.3 3.1 7.3s.7 1.3 1.4-.2 2.1-7.2 2.1-7.2.1-.8-.7-.7c-.7.1-5.6.1-5.6.1s-.6.2-.3.7z" fill="#ec008c" stroke-width=".586" stroke="#000000" stroke-miterlimit="10"/>
        <path d="M508.8 128.9c.3-.4.8-.9 1.2-1.3.3-.3.7-.3 1 0l1.6 1.7-3.7.1c-.1-.1-.2-.4-.1-.5z" fill="#ffffff" stroke="#000000" stroke-width=".586" stroke-miterlimit="10"/>
        <path d="M500.8 131.3s.8 2.3 5 2c.4.2 12.4 4.2 12.4 4.2s1.5.4 1.8 1.2c.3.9-.4-5.5-.4-5.5l-4.1-.9-.9-1h-13.8z" fill="#ffde17" stroke-width=".586" stroke="#000000" stroke-miterlimit="10"/>
        <path d="M559.5 130.6s1-.4 1 .4-.5 2.1-1.2 3.1-.5 1.6-.4 2c.1.4-1.5 1.6-1.6 2.1-.1.5-1.1 1.9-1.9 1.8s-5.9-.1-5.7-1.1c.2-1 1.8-.8 2.2-.7.4.1-1.7-.6-1.9-1.2-.2-.6-.4-1.2.3-1.2s3.1.6 3.1.6l-2.4-.6s-1.1-2.1.3-2.1c1.4-.1 3.3 1.1 3.3 1.1l-2.6-1.5s-.4-1.5.7-1.7c1.2-.1 4 2.5 4.5 2s2.3-3 2.3-3z" fill="#ffde17" stroke-width=".586" stroke="#000000" stroke-miterlimit="10"/>
        <path d="M521.6 133.2c-.2-.1.5 7.4.5 7.4s-1.6 1.8-2.3-.3c.1-.7-.2-7.1-.2-7.1h2z" fill="#ffffff" stroke="#000000" stroke-width=".586" stroke-miterlimit="10"/>
        <path d="M497.9 160.9s2.5 5.6 7.5 5.3c5.2-.4 14.2-2.6 18.2-8.1l-4.4-5.9s-2.9 5.2-13.2 5.6c-.4.2-7.9 0-8.1 3.1z" fill="#ec008c" stroke-width=".586" stroke="#000000" stroke-miterlimit="10"/>
        <path fill="#ffffff" stroke="#000000" stroke-width=".586" stroke-miterlimit="10" d="m526 140.7-3.9-.1-.5-7.4 4.2-.1.2 7.6z"/>
        <path d="M533.7 139.5c.2-.1 5.6-.1 5.6-.1s-.4-7-.4-7.1c0-.1-5.2.1-5.2.1l-.1 6.6v.5z" fill="#ffffff" stroke="#000000" stroke-width=".586" stroke-miterlimit="10"/>
        <path d="M523.8 140.5s.4 1.8-2.6 3.1c-.2 0-6.5 4.7-5.9 8.1.2.7.1 1.2 1.6 1 .6.2 23.4-1.2 23.4-1.2s3.3-4.9-5.4-9.6c0 0-.8-.4-.6-1.5.2-1-.1-8.9-.1-8.9l-1.8.4.1 9.4s.2.8-1.2 1.1c-1.5.3-3.2-.1-3.2-.1s-.1-.1-.2-1-.2-8.7-.2-8.7l-1.9.4.1 7.6-2.1-.1z" fill="#ec008c" stroke-width=".586" stroke="#000000" stroke-miterlimit="10"/>
        <path d="M528.8 132.3c.2-.1 1.3.3 1.3.3l1-.4" fill="none" stroke-width=".586" stroke="#000000" stroke-miterlimit="10"/>
        <path d="M541.6 132.3c-.2-.1-2.6.1-2.6.1l.4 7.1 2.1.1.1-7.3z" fill="#ffffff" stroke="#000000" stroke-width=".586" stroke-miterlimit="10"/>
        <path d="M530.9 134.7a.8.8 0 1 1-1.6 0 .8.8 0 0 1 1.6 0z"/>
        <path d="M530.9 137.2a.8.8 0 1 1-1.6 0 .8.8 0 0 1 1.6 0z"/>
        <path d="M530.9 139.4a.8.8 0 1 1-1.6 0 .8.8 0 0 1 1.6 0z"/>
        <path d="M536.1 172.4s-3.2-10.5-2.6-13.5l-6.4.1s.1 13.2.4 13.7.3 3.2 2.6 3.1c1.4 0 2.9-.1 3.9-.2 1.7-.1 2.8-1.7 2.1-3.2z" fill="#ec008c" stroke-width=".586" stroke="#000000" stroke-miterlimit="10"/>
        <path d="M530.3 105s-2.9-4.6-3.7-4.5c-.9.1-4.2 6.7-3.9 9 .4 1.8 2.3 2.2 2.3 2.2s3.4.1 4.3-1.6c.4-.3 1.4 4.2 6.9 2.1.1 0 2.1 5.4 4.5 4 .4-.1 4.1-4 3.1-7.4-.3-.4-1.3-2.3-6.2-1-.5.2.1-2-2.6-2.7-2.5-.7-4.7-.1-4.7-.1z" fill="#ec008c" stroke-width=".586" stroke="#000000" stroke-miterlimit="10"/>
        <path fill="#ffffff" stroke-width=".514" stroke="#000000" stroke-miterlimit="10" d="M527.7 120.032c.113.709-.237 1.354-.782 1.442-.545.087-1.08-.417-1.193-1.125-.114-.71.236-1.355.782-1.442.545-.088 1.08.416 1.193 1.125z"/>
        <path fill="#ffffff" stroke-width=".514" stroke="#000000" stroke-miterlimit="10" d="M531.86 118.948c.548.07.918.705.827 1.417-.092.712-.61 1.233-1.158 1.162-.547-.07-.917-.704-.826-1.417.092-.712.61-1.232 1.158-1.162z"/>
        <path d="M527.9 124.8c.5.7 1.3 1.1 2.1.7.9-.4 1.2-1.4 1.5-2.2.1-.2-.2-.4-.4-.4-.6.1-.7.9-1.2 1.2-.7.4-1.6.3-2.1-.4l-.4.4c.3.3.6.5.9.8.2.2.7-.1.5-.4-.3-.4-.6-.7-1-1-.2-.2-.6.2-.4.4.4.6.9 1 1.6 1.2.2.1.4-.1.4-.4-.1-.3-.3-.6-.6-.7-.2-.1-.5.1-.4.3.1.6.8.9 1.3.6.2-.1.2-.3.1-.5-.3-.3-.6-.4-1.1-.3-.2.1-.3.3-.2.4.3.5 1 .6 1.4.2.1-.1.1-.3 0-.4-.2-.3-.5-.6-.9-.3-.2.2-.2.6.1.7.1-.2.2-.3.3-.5-.4-.2-.9-.5-1.3-.7-.1.2-.2.3-.3.5.8.4 1.6.4 2.4.1.4-.1.2-.7-.2-.6-.7.2-1.3.2-2-.1-.3-.2-.6.3-.3.5.4.2.9.5 1.3.7.3.2.6-.3.3-.5v.3-.4c-.2 0-.3 0-.5-.1-.1.1-.1.3-.2.4.2.1.3.1.5.2 0-.2 0-.3.1-.5-.2.1-.4 0-.5-.3-.1.1-.3.2-.4.3l.4.4.4-.4c-.5-.2-1-.5-1.3-.9l-.4.4c.3.2.6.5.8.8.2-.1.3-.2.5-.4-.3-.3-.6-.5-.9-.8-.3-.3-.6.1-.4.4.5.6 1.2.8 1.9.7.4 0 .7-.2 1-.4.3-.2.6-1 .9-1l-.4-.4c-.2.6-.4 1.2-.9 1.7-.7.5-1.3.2-1.8-.4 0 .4-.4.8-.2 1.1z"/>
        <path d="M525.9 120.7c.5.3 1 .3 1.5.1.3-.1 0-.5-.2-.4-.4.2-.7.1-1-.1-.3-.1-.5.3-.3.4z"/>
        <path d="M530.9 120.7c.3.6 1.2.7 1.5.1.2-.2-.2-.5-.4-.2s-.6.2-.8-.1c-.1-.2-.4 0-.3.2z"/>
        <path d="M532.4 119.5c.3 0 .6-.1.8-.3.2-.2-.1-.5-.3-.3-.2.2-.3.2-.5.2-.3-.1-.3.4 0 .4z"/>
        <path d="M525.3 119.4c.1 0 .2.1.3.1 0-.1 0-.3.1-.4-.2 0-.4 0-.6-.2-.2-.1-.5 0-.4.2.2.5.9.6 1.3.1.1-.1 0-.3-.1-.3-.2-.1-.3-.1-.5-.2 0 .1-.1.3-.1.4.4.1.7.1 1.1 0 .3-.1.2-.5-.1-.4-.3.1-.5.1-.8 0-.3-.1-.4.3-.1.4.2.1.3.1.5.2 0-.1-.1-.2-.1-.3-.1.2-.3.1-.4 0-.1.1-.3.1-.4.2.3.2.6.3 1 .3.3 0 .3-.4.1-.4-.1 0-.2-.1-.3-.1-.7-.1-.8.3-.5.4z"/>
        <path d="M532.1 119.3c.4.2.7.2 1.1 0 .2-.1.2-.4 0-.4-.3-.1-.6-.1-.8-.2-.3-.1-.4.4-.1.4.3.1.6.1.8.2v-.4c-.3.1-.5.1-.8 0-.2-.1-.4.2-.2.4z"/>
    </g>
</svg>