<svg xmlns="http://www.w3.org/2000/svg" width="185.924" height="99.558" viewBox="0 0 185.924 99.558" class="">
  <defs>
    <style>
      .cls-1 {
        fill: #ee3524;
      }

      .cls-2 {
        fill: #fff;
      }
    </style>
  </defs>
  <g id="Group_11" data-name="Group 11" transform="translate(-136 -40)">
    <path id="Path_1" data-name="Path 1" class="cls-1" d="M358.871.595,358.412.08c-.193.21.06.369.459.515" transform="translate(-68.616 39.954)"/>
    <path id="Path_2" data-name="Path 2" class="cls-1" d="M382.7,4.974c-.485,0-1.064-.039-1.87-.094a12.116,12.116,0,0,0,1.87.094" transform="translate(-81.454 37.214)"/>
    <path id="Path_3" data-name="Path 3" class="cls-1" d="M341.914,1.5l-1.6.047a11.854,11.854,0,0,0,1.6-.047" transform="translate(-58.318 39.143)"/>
    <path id="Path_4" data-name="Path 4" class="cls-1" d="M95.42,3.108c1.081.154,2.5.378,4.007.622-.832-.326-1.081-.888-4.007-.622" transform="translate(81.515 38.265)"/>
    <path id="Path_5" data-name="Path 5" class="cls-1" d="M322.09,2.53l1.317.172c.026,0,.069,0,.086-.03a2.644,2.644,0,0,0-1.4-.142" transform="translate(-47.914 38.577)"/>
    <path id="Path_6" data-name="Path 6" class="cls-1" d="M385.19,5.1h0Z" transform="translate(-83.944 37.088)"/>
    <path id="Path_7" data-name="Path 7" class="cls-1" d="M106.017,4.856,104.73,4.65a3.435,3.435,0,0,0,1.287.206" transform="translate(76.199 37.345)"/>
    <path id="Path_8" data-name="Path 8" class="cls-1" d="M8.716,99.12c-.2.236-.39.536-.386,1.81a9.128,9.128,0,0,0,.386-1.81" transform="translate(131.244 -16.598)"/>
    <path id="Path_9" data-name="Path 9" class="cls-1" d="M8.686,164.979l.172.189.086.082L8.45,164.7s.107.142.236.279" transform="translate(131.175 -54.044)"/>
    <path id="Path_10" data-name="Path 10" class="cls-1" d="M125.953,171.539a3.554,3.554,0,0,0-.643-.219c-.009.163.227.292.643.219" transform="translate(64.448 -57.824)"/>
    <path id="Path_11" data-name="Path 11" class="cls-1" d="M233.758,171.04a.261.261,0,0,0,0,.051.039.039,0,0,0,0-.051" transform="translate(2.524 -57.664)"/>
    <path id="Path_13" data-name="Path 13" class="cls-1" d="M142.512,170.337c-.652-.021-1.287,0-1.862,0a11.434,11.434,0,0,0,1.862,0" transform="translate(55.689 -57.257)"/>
    <path id="Path_16" data-name="Path 16" class="cls-1" d="M6.43,95.267c.339-.935-.1-1.39-.1-2.527,0,1.12-.523,3.955.1,2.527" transform="translate(132.504 -12.955)"/>
    <path id="Path_17" data-name="Path 17" class="cls-1" d="M8.408,80.881a15.812,15.812,0,0,1,.27-2.441,9.527,9.527,0,0,0-.27,2.441" transform="translate(131.2 -4.789)"/>
    <path id="Path_18" data-name="Path 18" class="cls-1" d="M9.04,77.9c.03-.133.06-.266.094-.408-.034.124-.064.262-.094.408" transform="translate(130.838 -4.247)"/>
    <path id="Path_19" data-name="Path 19" class="cls-1" d="M8.477,88.677a29.682,29.682,0,0,0-.094-4.547,38.388,38.388,0,0,0,.094,4.547" transform="translate(131.23 -8.038)"/>
    <path id="Path_20" data-name="Path 20" class="cls-1" d="M7.068,24.59a16,16,0,0,1,.189-4.02c-.575,2.145-1.06,2.145-1.2,5.864.292-.5.652-7.542,1.008-1.845" transform="translate(132.54 28.254)"/>
    <path id="Path_21" data-name="Path 21" class="cls-1" d="M8.41,29.94v0Z" transform="translate(131.198 22.904)"/>
    <path id="Path_22" data-name="Path 22" class="cls-1" d="M15.15,7.6A3.318,3.318,0,0,1,16.8,7.227,2.787,2.787,0,0,0,15.15,7.6" transform="translate(127.349 35.879)"/>
    <path id="Path_23" data-name="Path 23" class="cls-1" d="M170.467,1.086c.691-.051,3.209-.154,1.815-.3H168.82c.034.24,1.18.24,1.647.3" transform="translate(39.604 39.549)"/>
    <path id="Path_24" data-name="Path 24" class="cls-1" d="M205.153,3.152c-1.4-.142.03.485-2.733.429l2.574.378Z" transform="translate(20.418 38.212)"/>
    <path id="Path_25" data-name="Path 25" class="cls-1" d="M228.99.16l1.909.94c.455.026.42-.7-1.909-.94" transform="translate(5.246 39.909)"/>
    <path id="Path_26" data-name="Path 26" class="cls-1" d="M259.334.475,254.25.2l1.626.283Z" transform="translate(-9.177 39.886)"/>
    <path id="Path_27" data-name="Path 27" class="cls-1" d="M288.115,1.44l-.455.2,3.93.034Z" transform="translate(-28.254 39.178)"/>
    <path id="Path_28" data-name="Path 28" class="cls-1" d="M391,168.532c2.209-.978,5.526.322,6.632-.652-1.613.2-7.164-.12-6.632.652" transform="translate(-87.242 -55.86)"/>
    <path id="Path_29" data-name="Path 29" class="cls-1" d="M161.528,169.666l-5.3-.176c4.153.176,1.193.476,5.3.176" transform="translate(46.792 -56.779)"/>
    <g id="Group_6" data-name="Group 6">
      <path id="Path_12" data-name="Path 12" class="cls-1" d="M185.924,38.85l-.429-6.667c-.48,2.338-1.579,7.293-.9,8.824-.674,1.9-.429-2.728-1.218-1.051,1.055-4.462-.429-2.746-.219-7.366.918,2.094,1.24-4.595,1.686-4.389a25.528,25.528,0,0,1,.588-6.173c.086-2.673-.652-8.8-.335-13.089-.287,1.622-.665,4.187-1.248,4,.33-2.111.322-4.414-.356-4.809-1.24,7.46,1.562,2.407.759,9.176-.772,1.673-.961,3.522-1.188,7-.206-.738-.356-.978-.515-1.094V19.841a37.318,37.318,0,0,0,.137-4.916c-.03-1.467-.09-2.977-.09-4.466,0-.746,0-1.484.056-2.214a11.774,11.774,0,0,0,.06-2.209c-.06-.643-.12-1.042-.133-1.381a4.027,4.027,0,0,0-.107-.982,2.748,2.748,0,0,0-1.042-1.411,4.538,4.538,0,0,0-1.519-.755,5.426,5.426,0,0,0-1.133-.193l-.472-.026h-.476l.712-.077H179a4.127,4.127,0,0,1,.6,0,5.723,5.723,0,0,1,1.287.253,6.141,6.141,0,0,1,2.192,1.218,6.406,6.406,0,0,1,.6.6l.21.245a6.857,6.857,0,0,0-1.815-1.656,7.008,7.008,0,0,0-.712-.382c-.206-.1-.39-.176-.545-.24-.3-.133-.51-.2-.652-.275a1.284,1.284,0,0,1-.283-.2,1.364,1.364,0,0,0-.738-.429,3.966,3.966,0,0,0-.472-.094c-.107-.026-.236-.047-.386-.069-.3-.043-.695-.077-1.214-.1l.819.266c.429.133.8.262.858.266A13.8,13.8,0,0,1,173.86.236l2.145.819c-1.369.1-3.9.206-3.93-.279-.36.2-.468.36-.468.5a6.9,6.9,0,0,0-2.523-.2c.939.094,1.6.043,1.63.283-6.1-.193-1.42.888-5.212.807.6.189-.48.429-1.832.528.09-1.287-7.417-1.459-9.4-2.175h.03L149.188,0c1.034.1-.081.455-1.579.592h.249c-1.622.2,1.935,1.4-2.934,1.03L142.35,1.24c.429.047,0,.245-.219.343l-2.643-.347c-4.024,1.205-7.61-.678-12.355-.086,1.369-.1,3.432,0,2.574.378a8.885,8.885,0,0,1-3.033-.184l.253.146L117.884.695c.734.429,5.787.468,3.535.957-1.338.588-3.93-.034-5.556-.077.21-.339,3.2-.643.18-.824-.378.167-3.248.519-1.9.764-3.1-.347-7.585-.558-10.36-1.163-.884.15.489.287.957.339l.227-.1c1.858.189.279.858,3.951.519.309,1.12-5.277.309-8.486.463l5.122.759c-8.644,1.532-20.287-.129-28.837-.15,2.518-.347,4.6,0,4.311-.888-5.32-.429-4.616-.227-9.914-.4l.429.047c-2.737.429-6.486-.429-8.284.369,1.2.48,3.9-.45,3.96.519l-6.68-.077c2.1.575,6.68.077,9.232.21,1.836-.051-3.689-.133-2.819-.768,6.238.03,7.653.656,10.725,1.57.579.21.541.352.176.455H72.784A54.505,54.505,0,0,0,57.85,2.437l-3.406.738c-3.046-.669-1.75-1.986-7.293-1.819l1.652.528a14.906,14.906,0,0,1-2.574.275c1.991.335,4.106.7,6.006,1.06h-7.55c-1.716-.249-3.458-.5-5.041-.575a20.583,20.583,0,0,1,2.338.476C35.075,3.385,27.851,2.046,22.51,1.87c-2.252.489,4.44.326,3.333,1.055-2.8-.283-5.963.36-6.722-.317.97.759-3.569.369-2.939.6H13.247a8.728,8.728,0,0,0-2.87-.489c.678.429-.755.365-2.231.378a12.465,12.465,0,0,1,1.287.154H8.009A3.861,3.861,0,0,0,4.148,7.117v3.947L3.5,22.458c.253-.429.468-.493.648-.219v2.119c-.429,1.36-.789,1.815-.622,6.143.339,1.446.429,1.218.622.755v8.906c-.047.858-.1,1.656-.189,2.359a2.307,2.307,0,0,0,.189-.275v2.145a13.966,13.966,0,0,1-.472,3.625l.472.395v6.4c-.064-.133-.069.27-.043,1.021,0-.167.03-.36.043-.541v1.617c0-.408-.034-.772-.043-1.081-.322,3.149-.326,8.151-.313,11.317a2.1,2.1,0,0,0,.356-1.017v1.017a3.861,3.861,0,0,0,3.175,3.8,6.422,6.422,0,0,0,.648.146c.27.043.476.077.626.116.3.073.382.146.313.21a1.527,1.527,0,0,1-.575.2,4.411,4.411,0,0,1-1.171.12A10.277,10.277,0,0,1,5.045,71.3c-.146,0-.163.1.09.373a3.12,3.12,0,0,0,.622.5A4.718,4.718,0,0,0,7,72.72l-.142-.026L6.491,72.6A5.557,5.557,0,0,1,5.44,72.17a5.626,5.626,0,0,1-1.326-.961c.275.3.309.429.094.335l-.146-.129a3.913,3.913,0,0,1-.365-.356,5.75,5.75,0,0,1-.909-1.274,6.006,6.006,0,0,1-.541-1.467c-.047-.245-.077-.45-.094-.6v.094l.034.347a6.163,6.163,0,0,0,.12.661,5.857,5.857,0,0,0,.515,1.343A6.435,6.435,0,0,0,4.7,72.312c.691.515,1.326.789,1.54.952s0,.279-.858.1l-.3-.133a6.264,6.264,0,0,1-.764-.408,6.958,6.958,0,0,1-1.961-1.759,6.8,6.8,0,0,1-1.12-2.407,7.889,7.889,0,0,1-.167-1v-.184A1.7,1.7,0,0,1,1,67.662a.367.367,0,0,0-.03.124l-.026.133c-.034.159-.069.24-.112.27s-.2-.124-.3-.386a.837.837,0,0,0-.039-.09l-.03-.043-.064-.086a1.626,1.626,0,0,0-.129-.159c-.086-.09-.172-.137-.266-.073v.472l.026.326.043.36a1.748,1.748,0,0,0,.06.365c.043.214.094.45.159.7s.159.506.257.776a6.086,6.086,0,0,0,.378.824,8.3,8.3,0,0,0,6.491,4.376c.206,0,.455.039.622.047l.3.021,6.379.463c-.5-.292-2.338-.476-1.656-.772,3.411-.253,2.78.523,5.985.124l-1.416-.382c.253.146.7.193,0,.245-1.124.249-1.617-.043-1.622-.287,1.124-.489,4.354-.159,5.311.18,4.144-.064.858-.858,1.767-1.025,2.145.819,6.924,0,9.494.356l-1.652-.528a23.991,23.991,0,0,1,7.829.073l-.716-.429c4.393.082,6.568-1.381,9.914.163l-.463-.287c1.8-.133,4.535-.459,6.263,0,.039-.184.347-.429,1.072-.459.978.6,2.849.146,5.508.039-1.763-.154-1.2-.927-3.059-1.111,4.1-.789,3.758.858,7.2.858,2.068-.395-1.849-.429-2.347-.721,5.315.429,10.922-1.78,14.277-.24l-2.278.493c2.111.335,3.26.33,3,.184a1.6,1.6,0,0,1-1.15-.24c6.384-.8,9.983,1.133,16.426.819-.48-.287-1.4-.382-1.441-.626,2.964-.3,2.887,1.5,7.679.9l-.94-.335a4.048,4.048,0,0,1,2.574.33c.386-1.223,10.167.09,13.462-1.6,2.347.721,9.069,1.287,11.12.884,2.947-.785-2.6-.858-1.51-1.6,2.308,0,3.518.716,6.954.463.06.729-6.791,1.48-.326,1.9l.905-.39a13.486,13.486,0,0,1-2.527.107c-1.875-.429,1.12-.489,1.549-.686l6.941.223c.511.776-3.642.592-4.075.789,5.5-.163,12.106-1.287,17.216-.785l-.485-.317c6.512.661,3.8-1.42,8.983-.176,2.737-.2-.987-.824,3.149-.884,1.167,0,.48.287.275.386,5.075.275,2.235-.738,6.924-.021l-.858-.7h.858c2.471.292,4.976.712,7.413,1.051.691.094,1.377.184,2.055.262l.253.03h.575a2.282,2.282,0,0,0,.373-.021,5.26,5.26,0,0,0,.708-.112,5.571,5.571,0,0,0,.656-.2A4.933,4.933,0,0,0,184,68.013c-.339.146-.682,1.2-1.514,2.038a4.475,4.475,0,0,1-1.4,1,2.71,2.71,0,0,1-1.338.262,4.071,4.071,0,0,0,2.63-1.334,4.337,4.337,0,0,0,.858-1.407,4.685,4.685,0,0,0,.223-.828,3.345,3.345,0,0,0,.051-.429v-.39c.077-1.87.077-3.818.064-5.744-.03-3.861-.129-7.658.18-10.678.541,1.806,1.253-2.861,1.716,1.012-.819,1-.283,2.819-.373,4.891,1.789-3.35-.858-14.007.682-15.015l-.635-.888c.107-.922.583-3.273.785-1.647m-3.385-5.985.094.206-.094,2.909V32.866ZM114.56,2.445l6.233.27-6.062-.163.764.472-1.167-.48h.429Zm-6.435.785a15.713,15.713,0,0,0-1.849-.172,9.76,9.76,0,0,1,1.849.172l.2.034h-.12ZM11.394,71.767a15,15,0,0,0-1.965-.515c-.395-.077-.807-.146-1.223-.2a3.349,3.349,0,0,1-.541-.077h4.989l2.145.279c-1.124.262-.4.695-3.406.51m17.16,1.5.176-.828,1.656.772Zm7.383.026c-4.217.373-4.037-.378-4.47-.931-.566-.12-.922-.283-.935-.459a1.286,1.286,0,0,1,.935.459,13.261,13.261,0,0,0,4.161.056c-.257-.386-1.373-.142-2.321-.236a15.125,15.125,0,0,1,3.217-.159c-1.562.691-.4.686-.583,1.27Zm11.948-.236c-1.373-.142-2.574-.622-4.384-.326.24.146,0,.245,1.158.236l-2.514.107c-2.879-.686-.133-.9,2.574-1.12a1.528,1.528,0,0,1,.8-.347,3.329,3.329,0,0,1,1.253.142,5.769,5.769,0,0,0,1.261-.245l.253.146a2.327,2.327,0,0,1-1.514.1c-.609.077-1.321.142-2.055.206-.476.5,2.411.832,3.17,1.107ZM54.32,72.5l2.827.523c-.734.056-3.737-.129-2.836-.519Zm25.066-.708c-.716-.429.905-.146,1.592-.429l4.393.326c-.845.862-3.921-.051-5.985.1m37.121.026c2.54-.107,5.311-.064,5.954-.356C122.741,71.849,117.7,72.544,116.507,71.819Zm-3.973-.764-1.094.729c-.051-.485-4.187-.429-4.646-.472-.159-.146-.2-.245-.163-.322h3.861a10.549,10.549,0,0,0,2.042.064" transform="translate(136 40)" data-label="path#Path_12"/>
      <path id="Path_30" data-name="Path 30" class="cls-2" d="M389.893,67.76a4.263,4.263,0,0,1,.785.073,1.286,1.286,0,0,1,.858.429.79.79,0,0,1,.146.609.832.832,0,0,1-.729.695.79.79,0,0,1,.348.712,5.034,5.034,0,0,0,.09.9l-.429-.073a4.082,4.082,0,0,1-.077-.785c0-.429-.155-.639-.519-.721l-.382-.069-.24,1.356-.4-.073Zm.155,1.5.429.073a.627.627,0,0,0,.791-.4.711.711,0,0,0,.019-.074c.073-.4-.189-.631-.618-.712a1.687,1.687,0,0,0-.408-.034Z" transform="translate(-86.314 1.309)"/>
      <path id="Path_31" data-name="Path 31" class="cls-2" d="M387.157,70.694a3.474,3.474,0,0,1-1.463-.322,3.432,3.432,0,0,1-1.8-1.956,3.5,3.5,0,0,1,4.758-4.341,3.454,3.454,0,0,1,1.692,4.582l-.014.03a3.514,3.514,0,0,1-3.17,2.012Zm.03-6.087a2.654,2.654,0,0,0-.909.163,2.626,2.626,0,0,0-1.579,3.355,2.574,2.574,0,0,0,1.356,1.463,2.647,2.647,0,0,0,3.5-1.287,2.534,2.534,0,0,0-1.266-3.432,2.626,2.626,0,0,0-1.1-.262" transform="translate(-83.089 3.596)"/>
      <path id="Path_32" data-name="Path 32" class="cls-2" d="M67.867,61.694l5.414,10.957.386.532.558.146a3.149,3.149,0,0,1,2.342-.146l.051.094c-.167,1-1.446,2.055-2.145,2.879-1.5,1.956-2.806,5.388-4.449,6.937h-.6L69,82.633c-.459-.918.245-2.175-.532-3.719l-5.1-10.2c-12.158.4-14.226-9.314-20.738-7.379l-.652-.583c-.146-1.257,2.63-5.242,3.406-6.718.652-1.231,2.222-5.826,3.046-6.358l1.184.429.073.146c.051,1.665-.506,2.368.313,4.011,2.033,4.058,9.867,8.893,14.483,7.563A12.944,12.944,0,0,0,65.362,47.6c-1.042-2.076-3.509-5.435-5.779-2.368a3.625,3.625,0,0,1-2.574-2.145c-1-1.982.094-4.033,1.982-4.976,4.29-2.145,7.954,2.488,9.592,5.774,2.664,5.358,1.459,12.488-.716,17.808" transform="translate(112.037 18.55)"/>
      <path id="Path_33" data-name="Path 33" class="cls-2" d="M143.41,83.634c-1.562.429-2.63-.781-3.372-2.033a10.282,10.282,0,0,1-5.7,4.5c-3.642,1.017-7.842-.562-8.915-4.41-1.862-6.667,6.229-10.043,10.45-13.016-.858-1.716-3-1.467-4.552-1.034-2.5.7-3.634,1.463-3.492,4.17-2.145.6-4.582-.124-5.234-2.467-1.145-4.114,3.531-6.654,6.812-7.563,4.114-1.15,8.619-1.677,10.03,3.372l3.372,12.072c.575,2.081,2.089,2.278,2.381,3.32.51,1.828,0,2.587-1.78,3.084m-6.323-12.827c-2.359,2-6.006,3.363-4.972,7.113.493,1.767,2.574,2.025,4.093,1.6s1.982-1.557,2.535-2.78Z" transform="translate(66.099 5.16)"/>
      <path id="Path_34" data-name="Path 34" class="cls-2" d="M179.83,67.578a2.577,2.577,0,0,1-.858-.249l-.33-.729c.682-3.861,13.586-2.733,12.209-18.185-.347-3.861-2.758-7.186-7.014-6.8a5.277,5.277,0,0,0-2.145.682c.283,3.119,3.586,16.444-.824,16.834-1.669.15-2.321-1.09-2.458-2.6l-2.462-27.563c-.137-1.562-.476-1.639-1.87-.858l-.987-.129-.45-.776.429-.742a28.623,28.623,0,0,0,6.534-4.6,4.307,4.307,0,0,1,1.583-1.06l.819.09c.069.154.326.571.287.785-.541,1.84-2.312,1.4-2.012,4.792l.97,10.819a9.764,9.764,0,0,1,6.4-3.608c4.951-.429,8.507,4.123,8.915,8.7.892,9.9-5.491,24.2-16.74,25.2" transform="translate(37.422 28.123)"/>
      <path id="Path_35" data-name="Path 35" class="cls-2" d="M251.374,76.685c-1.617-.146-2.184-1.66-2.437-3.1a10.316,10.316,0,0,1-6.928,2.2c-3.767-.343-7.13-3.308-6.774-7.293.626-6.89,9.391-7.177,14.389-8.46-.206-1.918-2.274-2.432-3.891-2.574-2.574-.24-3.912.077-4.745,2.66-2.205-.2-4.239-1.742-4.015-4.161.39-4.251,5.654-4.968,9.052-4.68,4.251.386,8.657,1.493,8.181,6.714l-1.133,12.484c-.193,2.145,1.15,2.874,1.055,3.951-.172,1.9-.927,2.428-2.754,2.261m-1.369-14.234c-2.917,1.038-6.821,1.008-7.173,4.886-.167,1.832,1.716,2.81,3.26,2.956s2.4-.764,3.355-1.716Z" transform="translate(1.695 10.753)"/>
      <path id="Path_36" data-name="Path 36" class="cls-2" d="M296.534,84.113l-.781-.429-.154-.656a3.178,3.178,0,0,1,1.012-.618c.3-1.094-.352-2.171-.764-3.123-2.244-5.491-2.106-7.812-2.257-13.569-.313-.7-1.531-.759-2.205-.944l-.39-.223a.672.672,0,0,1-.064-.579l.429-.6c4.972-1.767,4.084-.781,9.579-3.638l.858.18.339.6c-.5,1.21-1.622,2.021-1.952,3.217-.519,1.875,1.527,9.725,2.179,12.038,3.325-2.5,7.036-7.422,8.151-11.437.588-2.145-.3-1.763-.8-3.187l.056-.6a2.463,2.463,0,0,1,2.969-1.42c2.145.588,2.106,2.934,1.63,4.655-1.12,4.045-14.208,20.283-17.833,20.347" transform="translate(-30.097 6.294)"/>
      <path id="Path_37" data-name="Path 37" class="cls-2" d="M349.489,106.555c-1.467-.7-1.467-2.321-1.2-3.754a10.25,10.25,0,0,1-7.254-.365c-3.432-1.634-5.53-5.577-3.8-9.193,3-6.233,11.3-3.432,16.439-2.9.476-1.87-1.287-3.076-2.746-3.775-2.342-1.124-3.694-1.287-5.38.858-1.995-.957-3.359-3.115-2.308-5.307,1.849-3.861,7.04-2.673,10.107-1.2,3.861,1.849,7.589,4.423,5.32,9.146l-5.427,11.261c-.935,1.948.077,3.093-.39,4.063-.841,1.733-1.7,1.943-3.363,1.167m3.694-13.809c-3.1-.051-6.744-1.437-8.43,2.068-.8,1.656.6,3.23,2.021,3.9s2.514.129,3.741-.429Z" transform="translate(-56.21 -5.405)"/>
    </g>
    <g id="Group_7" data-name="Group 7">
      <path id="Path_38" data-name="Path 38" class="cls-2" d="M56.394,192.22l-.184.313-.313.21h-.884l-.626.429h-.365l-.652.339-.575.339-.523.18-.549.781-.429.429-.129.429-.729.858v.1l-.6.287-.429.429.1.939.154.129.184.575.523.395.262.133.429.5v1.18l.313.339v.133l.914.888.129.631.129.133v.236l.429.785.575.429.262.395.94,1,.991-.051.39.575.129.429-.077.429-.429.262-.549-.133-.837.262-.154.133-1.356-.184H52.6l-.429-.236-.429.236-.781-.129-.468-.39v-.339l.343-.519.858-1.51-.322-.493-.549-.339-.236-.262-.026-.708-.991-1.39-.785-.631L48.638,201v-.746l-.176-.429-.408-.27-1.1.133-.515.6-.154.811-.129.133v.652l.236.39v.429l-.236.287v.523l.236.575-.129.678.107.523.738.708,1.081.026.257.322-.051.184-.549.575-.1.159-.154.236-.965.133-.523.236-1.042-.21-.468.15-.991.09-.523.15-.678-.262h-.429l-.39-.262-.154-.339.026-.6.7-.6.94-.395.914-1.1v-.944l-.077-1.124-.262-.626.069-.395.27-.21-.039-.549-.094-.133v-.5l-.339-.472.069-.287.4-.523v-.051l-.12-.133-.429-.051-.12-.5.184-.523.21-.184V196.9l-.077-.051-.313-.472v-1.047l-.129-.472v-1.047l-.287-.6-.909-.6-.858-.184-.262-.339v-.429l.914-.395.429-.39.729-.184.781-.133.429.077.262.133h2.145l.837.236.678.077.575.523v.184l-.262.159-.262.395-.051.184-.365.21H46.613l-.287.313L46.2,194l-.1,1-.129.914v.395l.236.339v.395l.262.262.678-.682.429-.262.39-.575.429-.395.262-.133.339-.429.129-.523.39-.262.429-.051.129-.133v-1.334l-.051-.184-.549-.051-.1-.133v-.21l.129-.133.523-.159.575-.313.626-.21.575-.262.429.077h2.574l.6.262.7.051.262.262Z" transform="translate(112.652 -68.81)"/>
      <path id="Path_39" data-name="Path 39" class="cls-2" d="M89.455,208.352l-.262.21v.918l-.523.858-.129.575-.811,1.205-.914.656-.365.313-.6.159-.678.523-.781.133-.965.313L83,213.744l-.429.133-.781-.1-.939-.159-.94-.575-.5-.21-1.2-1.231-.575-1.257-.073-.275-.468-.682-.236-1.57.236-1.6.287-1.047.39-1.047.262-.429.6-.523.644-.948.575-.339.523-.077.729-.472.914-.262,1.669-.133.1-.1h.154l.313.262,1.12.133.6.523,1.12.6,1.253,1.308.313.429L89,205.22l.129.159.1.914.21.429Zm-2.767-2.428-.661-.939v-.455l-.189-.159-1.381-.914-.811-.133-.5-.073-.6.2h-.678l-.523.287L81.3,204l-.378.493-.523.21-.6.811v.133l-.39.575-.077.523.21.287v.395l-.129.184-.077,1.047.129.159.077.429.184.262.678,1.257h.129l.914.734.7.184.077.133.652.133,1.072-.124.352-.3,1.193-.523,1.077-1.356Z" transform="translate(92.113 -74.68)"/>
      <path id="Path_40" data-name="Path 40" class="cls-2" d="M120.9,193.084l-.129.686V195.3l-.339.583-.129.133-.468.133-1.514-.858-.184-.429V193.2l-.133-.317-.129-.133h-.695l-.262-.1-.429.051-.811.395h-.429l-.313.571-.124.553V195l.236.6.21.21.6-.262.6.39.721.643.077.21v.051l.026.026-.369.39-.313.137-.429.395-.382.133-.613-.262h-.429l-.129.184-.129.472-.051.549-.129.313v2.042l-.077.811v.888l.262,2.145-.184.395v.369l.566.5.566-.1h.489l.386.236h1.236l.386.395v.236l-.523.888-.5.133-.429-.262-.39.107-.184.154-.755-.133h-.914l-.21-.133h-.575l-.652.262-.678.051-.236.133-.6-.313-1.175.133h-.661l-.6-.262-.184-.5v-.708l.266-.262,1.454-.287.952.129.858-.129.266-.313v-2.355l.154-.369-.047-.759-.112-.339.026-.682-.262-.429V199.63l.236-.708-.223-1-.335-.262-.785.082-.528.193h-.313l-.824-.536-.236-.262-.133-.858v-.395l.626-.262,1.017-.133.549.077.652-.682.313-.97.339-.549.154-.708.429-.472.575-.21.468-.575.678-.262h.365l.39-.395.811.039.262.094h.807l.575.184.652-.184.729.583.781.21.6.686Z" transform="translate(73.949 -68.919)"/>
      <path id="Path_41" data-name="Path 41" class="cls-2" d="M152.631,193.1l-.129.686v1.527l-.339.583-.129.133-.468.133-1.514-.858-.184-.429v-1.66l-.133-.317-.129-.133h-.682l-.262-.1-.429.051-.811.395h-.429l-.313.571-.124.553v.785l.236.6.21.21.6-.262.6.39.755.626.077.21v.051l.026.026-.369.39-.313.137-.429.395-.382.133-.613-.262h-.429l-.129.184-.129.472-.051.549-.129.313v2.042l-.077.811v.888l.262,2.145-.184.395v.369l.566.5.566-.1h.489l.386.236h1.236l.386.395v.236l-.523.888-.5.133-.429-.262-.39.107-.184.154-.755-.133h-.961l-.21-.133h-.575l-.652.262-.665.073-.236.133-.6-.313-1.175.133h-.678l-.6-.262-.184-.5v-.708l.266-.262,1.454-.287.952.129.858-.129.266-.313v-2.355l.154-.369-.047-.759-.112-.339.026-.682-.262-.429v-1.227l.236-.708-.223-1-.335-.262-.785.081-.528.193h-.313l-.785-.523-.236-.262-.133-.858v-.395l.626-.262,1.017-.133.549.077.652-.682.313-.97.339-.549.154-.708.429-.472.575-.21.468-.575.678-.262h.365l.39-.395.811.039.262.094h.807l.575.184.652-.184.729.583.781.21.6.686Z" transform="translate(55.831 -68.936)"/>
      <path id="Path_42" data-name="Path 42" class="cls-2" d="M179.816,206.79l-.026.343-.639.785-.429.133h-.262l-.549-.133h-.184l-.39.262-.39-.026-.154-.129-.1-.1-.262.133h-.468l-.21-.133h-.7l-.287.262-.7-.133h-.523l-.154.133-.129.133-.652-.262-.365.1-.888-.1h-.184l-.39.39-.184.678-.1.129v.468l.154.313.652.652.184.39,1.33,1.068.468.18h.652l.184.133,1.287-.133,1.433-.734.523-.523.429-.236.39-.472.026-.21.523-.21h.429l.262.287-.051.858-.468.97-.184.133-.429.159-.7.523L177.1,213l-.468.1-.837.678-.678-.077-.236-.133h-.729l-1.042.339-.429-.523-.7-.21-.39-.077-.339-.262-.781-.369-.549-.888-.429-.369-.523-.682-.262-.734-.129-.133V208.9l-.21-.472v-1.78l.313-1.308.429-.914.686-.674.287-.656,1.042-.858.965-.365.287-.026h.184l.523-.429h.94l.523-.369h.129l.468.395,1.094.133.626.523.888.21,1.463,1.716.468,1.394Zm-1.93-1.381-.133-.429-.39-.236-.365-.21-.365-.734H176.5l-.313-.051-.6-.549-.365-.262h-.236l-.313.129-.837-.129-.339.129-.287.257-.575.129-.129.129-.648.48-.455.429v.129l-.523.978-.184.541.1.129.21.129,1.514.129.729-.133.39.133h2.48l.429.133,1.094-.236.129-.159Z" transform="translate(39.86 -74.8)"/>
      <path id="Path_43" data-name="Path 43" class="cls-2" d="M210.188,206.779l-.026.343-.652.789-.429.133h-.262l-.549-.133h-.184l-.39.262-.39-.026-.154-.129-.1-.1-.262.133h-.468l-.21-.133h-.7l-.287.262-.721-.146h-.523l-.154.133-.129.133-.652-.266-.365.1-.888-.1H201.5l-.39.39-.184.678-.1.129v.468l.154.313.652.652.184.39,1.33,1.068.468.18h.652l.184.133,1.287-.133,1.433-.734.523-.523.429-.236.39-.472.026-.21.523-.21h.429l.262.287-.051.858-.468.97-.184.133-.429.159-.7.523-.468.133-.468.1-.837.678-.631-.064-.236-.133h-.729l-1.042.339-.429-.523-.7-.21-.39-.077-.339-.262-.781-.369-.549-.888-.429-.369-.523-.682-.262-.734-.129-.133v-.764l-.21-.472v-1.78l.313-1.308.429-.914.7-.682.287-.656,1.042-.858.965-.365.287-.026h.15l.523-.429h.94l.523-.369h.129l.468.395,1.094.133.626.523.888.21,1.463,1.716.468,1.394Zm-1.93-1.381-.133-.429-.39-.236-.365-.21-.365-.734h-.133l-.313-.051-.6-.549-.365-.262h-.236l-.313.129-.837-.129-.339.129-.287.257-.575.129-.129.129-.652.468-.455.429v.129l-.549.974-.184.541.1.129.21.129,1.514.129.729-.133.39.133h2.48l.429.133,1.094-.236.129-.159Z" transform="translate(22.508 -74.788)"/>
      <path id="Path_44" data-name="Path 44" class="cls-2" d="M246.216,191.077l-.129.811-.523.236-.6.133-.652.159-.575.708-.051.339-.262.472-.129,1.287-.549,1.755-.129.184v1.716l-.39.6v.918l-.184.313-.129,1.124-.133.287v1.755l-.236.549-.051,1.231-.129.133-.129.734-.837.549-.678-.287-.652-.656-.313-.6-.493-.708-.129-.549v-1.36l-.1-.133v-.159l-.077-.1-.313-.944-.678-.708H236.7l-.39.262-.051.97-.468.395-.077.549-.1.6-.154.5v.6l-.21.339-.129.858-.184.339-.39.549-.575.395h-.6l-.678-.472-.39-.395-.21-1.6-.184-.313v-1.072l-.313-2.75-.21-1-.051-.858-.39-1.308v-.682l-.287-.6v-1.047l-.429-1.57-.077-1.124-1.514-.472-.262-.339.077-1.18.262-.21.575-.236.429-.159.755.133.365-.1.429-.159.785.026,1.12.1.678.6.429.262.652.262.262.395.429.429-.154.39-.914.369-.755.051-.755.5.493,2.574-.129.262.129.339v2.252l-.176.287-.112.287.232.682.159,1.411.21.549.184-.313.523-1.257.339-.549.129-.429.575-.944-.1-.472.051-.6.39-.429v-1.677l.257-.287.129-.133h.618l.669.472.515.523.429.21.489,1.716.129.365-.21.858v-.051l-.051-.077.18.39-.154,1,.1.429.888,1.416v-.905l.21-.549v-.352l.133-.472.154-1.1v-.429l-.129-.129.313-.858-.1-.682-.262-.369.172-.545.133-.133.189-.858-.129-.313v-1.909l-.051-.21-.12-.142-.339-.21-.575-.133-.133-.129.051-.575.313-.682.888-.652,2.269-.051.365-.133.287.429h.18l1.042.292.429.317.523.124h.129Z" transform="translate(5.6 -68.131)"/>
      <path id="Path_45" data-name="Path 45" class="cls-2" d="M281.05,208.329l-.262.21v.918l-.523.858-.133.575-.807,1.206-.914.656-.365.313-.6.159-.678.523-.785.133-.965.313-.429-.472-.429.133-.781-.1-.939-.159-.94-.575-.493-.21-1.2-1.231-.575-1.257-.077-.262-.468-.682-.236-1.57.236-1.6.287-1.047.39-1.047.262-.429.6-.523.652-.97.575-.339.523-.077.729-.472.914-.27,1.669-.133.1-.1h.155l.313.262,1.12.133.6.523,1.12.6,1.253,1.308.313.429.339,1.124.129.159.1.914.21.429Zm-2.767-2.428-.661-.94v-.455l-.189-.159-1.381-.914-.811-.133-.5-.073-.6.2h-.678l-.523.287-.051.262-.39.5-.523.21-.6.811v.133l-.39.575-.077.523.21.287v.395l-.129.184-.077,1.047.133.159.077.429.18.262.678,1.257h.129l.914.734.7.184.077.133.652.133,1.073-.124.352-.3,1.193-.523,1.085-1.381Z" transform="translate(-17.285 -74.657)"/>
      <path id="Path_46" data-name="Path 46" class="cls-2" d="M313.033,204.59l-.262,1-.051.21-1.18.549h-.549l-.991-.429-.39-.858.549-.759v-.429l-.129-.133-.678-.051-.262-.133-.313.184-.154.185-.944.386-.39.5v.184l-.858.918-.33,1.257-.206.429v2.574l.18.184-.129.811.077.472.133.1.051.339.339.313.914.236.6-.133.7.133.287.523-.287.708-.523.287H305.1l-.429-.1-.729.1h-.523l-.858.313-.365-.133h-.807l-.185-.133-.262-.339-.133-.536.026-.429.236-.313.468-.159h1.982l.468-.339.262-.365-.129-1.287-.159-.626.026-.888v-1.175l-.129-.6.1-1.386v-1.012l-.236-.472-.287-.339-.429-.193-.549.262h-.5l-.287.262-.133.133-.468-.266-.781-1.287v-.8l.154-.317.493-.373h2.921l.1-.077.991.369h.669l.133.129.133.184v.858l.129.133.523-.262.339-.429.781-.133.313-.429.21-.077h1.042l1.982.339,1.381,1.021.262.287Z" transform="translate(-35.472 -74.925)"/>
      <path id="Path_47" data-name="Path 47" class="cls-2" d="M345.164,207.086l-.129.262-.429.339-.575-.133-.468.133-.6-.077-.339-.133-.837.133h-1.519l-.313-.184-.129-.133v-.262l.781-.656.313-.129.077-.051-.129-.365-.077-.369-.429-1.021-.523-.626-.21-.682-.755-.914-.129-.313-.257-.21-.493.133-.755.656-.287.133-.974.8-.206.39-.236,1.18.21.708.077.5.129.133h.184l.262-.159.652.287.21.313v.575l-.339.262-.468.1h-.626l-.287.133-.652-.026-.429-.262-.429.287-1.042-.21-.528-.03-.575-.579.1-.472.287-.184.7-.077.549-.734.262-.262.129-.579v-.553l.133-.133v-2.179l-.262-.682.1-.888.133-.549-.133-.914-.262-.682V197.7l.287-.708v-1.467l-.129-.429.129-.888.133-.888-.549-.575-.652-.133h-.18l-.262.21-.549-.133-.781-.811.077-.429.626-.652,1.2-.159.262-.133,1.463.21.6.21.39.523.129,1.18.129.575-.129.631v1.154l.15.339-.06.429-.215.429v3.466l.056,1.248.086.227.051.056.39-.5.678-.077.39-.729.7-.7.652-.262.429-.429.36-.219.236-.429v-.313l-.236-.339-.5-.129-.129-.184.051-.678.39-.262.652-.133.339-.262.077-.051h.184l.129.133h.678l.523-.133.429.133.549-.077h.365l.807.21h.729l.184.133.129.133v1l-.18.184-.386.077h-.154l-.429-.133-1.034.026-1.017.819-.807,1.068-.39.236-.18.339-.077.262-.468.287v.708l.468.682.077.429.626.858.21.759.468.631v.339l.39.6.781,1.047.468.287.781.133h.429l.313.262Z" transform="translate(-53.047 -68.782)"/>
      <path id="Path_48" data-name="Path 48" class="cls-2" d="M377.3,210.763l-.129,1.073-.549.626-.914.652-.6.365-1.124.262-.626.313h-1.93l-.6.133h-.262l-.429-.39-.39-.184h-.21l-.468.313-.7.129-.262.133-.21-.133-.077-.39-.493-.523-.429-1.257-.184-.858.051-.811.21-.313.6-.523h.523l1.094,1,.21.133.262.313v.21l.262.313.781.395.21.159.133.133,1.287.077.21.129.339-.21.262-.262.339.21h.652l.575-.429.429-.077.262-.429.129-.656-.39-.944-.429-.184-.643-.523-.575.133h-.429l-.523-.287-.7-.1-.429-.077-.523.051-.313.159-.429-.159-1.227-.051-.472-.785-.6-.549-.991-1.021v-2.145l.154-.523.523-.708.837-.472.781-.785.429-.133.262.077h.214l.429-.39,1.253-.077.236-.133,1.287.21h.365l.39.262h.472l.807-.262,1.356.129.159.262.1.575.262.549-.1,1.231-.262.339-.026.97-.133.21h-.39l-.129-.133-.39.313-.549-.159-.429-.369-.7-.708-.652-.287-.429-.133-.313-.262h-.781l-.549.266-1.381.768-.185.184.112.742.742.643.789.262.965.18,2.372.266.858.287,1.287.965.339.888.077,1.15Z" transform="translate(-73.392 -74.629)"/>
    </g>
  </g>
</svg>